<svg width="1440" height="189" viewBox="0 0 1440 189" fill="none" xmlns="http://www.w3.org/2000/svg">
<mask id="mask0_44_58" style="mask-type:alpha" maskUnits="userSpaceOnUse" x="0" y="0" width="1440" height="189">
<rect width="1440" height="189" fill="#D9D9D9"/>
</mask>
<g mask="url(#mask0_44_58)">
<mask id="mask1_44_58" style="mask-type:alpha" maskUnits="userSpaceOnUse" x="-19" y="-414" width="1479" height="951">
<path d="M1459.07 -375.207V-377.915L1459.05 -377.931L1443.71 -366.8L1437.85 -384.819H1418.9L1424.76 -402.843L1409.42 -413.974L1409.46 -414H1405.65L1405.69 -413.974L1365.55 -384.835H1334.85L1325.37 -413.984L1325.38 -414H1323.06L1323.07 -413.984L1320.8 -407.018L1314.94 -389.009L1300.27 -392.135L1292.53 -393.784L1283.14 -404.205L1274.34 -413.99L1274.34 -413.995H1271.39L1271.39 -413.99L1277.67 -407.018L1288.94 -394.515L1260.29 -400.599L1244.09 -372.566V-404.936L1216.27 -413.969L1216.35 -413.995H1209.1L1209.18 -413.969L1181.35 -404.936V-372.572L1165.16 -400.599L1160.85 -399.686L1136.52 -394.52L1154.06 -413.984L1154.05 -413.99L1154.06 -413.995H1151.09L1151.1 -413.99L1132.89 -393.784L1110.49 -389.009L1102.37 -413.974L1102.37 -413.995H1100.05L1100.05 -413.974L1090.58 -384.835H1059.86L1032.47 -404.717L1019.74 -413.953L1019.8 -413.995H1015.95L1016.01 -413.953L1000.67 -402.822L1006.53 -384.809H987.573L981.713 -366.795L966.369 -377.931L951.035 -366.8L945.175 -384.819H926.217L932.077 -402.843L916.743 -413.969L916.78 -413.995H912.973L913.009 -413.969L872.873 -384.835H842.169L832.695 -413.969L832.706 -413.995H830.381L830.387 -413.984L828.251 -407.42L822.26 -389.009L805.866 -392.5L799.855 -393.784L790.334 -404.351L781.644 -413.995V-414H778.693L785.299 -406.668L796.241 -394.525L767.595 -400.61L751.394 -372.577V-404.941L723.578 -413.974L723.662 -413.995H716.418L716.486 -413.974L688.665 -404.941V-372.577L672.469 -400.605L652.273 -396.315L643.828 -394.52L661.366 -413.984L661.361 -413.99L661.366 -413.995H658.399L658.405 -413.99L640.198 -393.789L617.793 -389.015L609.672 -413.979L609.677 -413.995H607.364V-413.99L597.885 -384.835H567.201L539.772 -404.743L527.044 -413.979L527.06 -413.995H523.289L523.305 -413.979L507.966 -402.848L513.826 -384.835H494.868L489.023 -366.821L473.679 -377.957L458.351 -366.826L452.491 -384.845H433.533L439.393 -402.869L424.059 -413.995H420.325L380.168 -384.845H349.49L340.011 -413.995H337.697L337.702 -413.984L334.694 -404.727L329.581 -389.015L313.892 -392.36L307.176 -393.789L297.785 -404.21L288.97 -413.99V-413.995H286.019L292.302 -407.023L303.567 -394.52L274.921 -400.605L258.72 -372.572V-404.941L230.904 -413.969L230.977 -413.995H223.733L223.801 -413.974L195.98 -404.941V-372.577L179.785 -400.605L159.98 -396.399L151.144 -394.52L168.681 -413.984L168.676 -413.99L168.687 -413.995H165.725L165.731 -413.99L147.524 -393.784L125.119 -389.009L116.998 -413.979L117.003 -413.995H114.69V-413.99L105.21 -384.835H74.5273L47.0979 -404.743L34.3755 -413.979L34.3912 -413.995H30.6205L30.6361 -413.979L15.3024 -402.848L21.1622 -384.835H2.20398L-3.65584 -366.821L-19 -377.957V-375.249L-4.37134 -364.629L-18.9948 -319.658L-19 -319.679V-312.54L-18.9948 -312.561L-9.95436 -284.763H19.2821L-18.9843 -256.986L-19 -256.996V-254.262L-18.9843 -254.272L19.3082 -226.474H-9.94391L-18.9791 -198.681L-19 -198.744V-191.532L-18.9843 -191.584L-4.35567 -146.607L-18.9791 -135.993L-19 -136.004V-133.296L-18.9791 -133.28L-3.64539 -144.416L2.21443 -126.397H21.1674L15.3076 -108.373L30.6413 -97.242L15.3024 -86.1113L21.1622 -68.0977H2.20398L-3.65584 -50.084L-19 -61.2199V-58.5116L-4.37134 -47.8923L-18.9948 -2.92068L-19 -2.93637V4.20236L-18.9948 4.18146L-9.95436 31.9795H19.2821L-17.8771 58.9531L-18.9843 59.7567L-19 59.7411V62.4755L-18.9843 62.465L19.3082 90.2631H-9.94391L-18.9843 118.056L-19 117.998V125.21L-18.9843 125.158L-4.35567 170.135L-18.9791 180.749L-19 180.733V183.442L-18.9791 183.457L-3.64017 172.327L2.21965 190.345H21.1727L15.3129 208.37L30.6466 219.5L15.3076 230.631L21.1674 248.645H2.20921L-3.65061 266.658L-19 255.522V258.231L-4.37134 268.85L-18.9948 313.822L-19 313.801V320.939L-18.9948 320.919L-9.95436 348.722H19.2821L-17.8719 375.695L-18.9791 376.499L-19 376.483V379.218L-18.9843 379.207L19.3082 407.005H-9.94391L-18.9843 434.798L-19 434.736V441.947L-18.9843 441.895L-4.35567 486.872L-18.9791 497.486L-19 497.476V500.184L-18.9791 500.2L-3.64017 489.069L2.21965 507.088H21.1727L15.3129 525.112L30.6466 536.243L30.6257 536.258H34.3964L34.3755 536.243L51.7357 523.64L74.5378 507.088H105.216L114.695 536.243L114.69 536.258H117.003V536.253L125.124 511.278L147.53 516.037L165.736 536.237L165.715 536.258H168.676L168.692 536.243L168.687 536.237L168.692 536.232L151.191 516.81L170.353 520.88L179.79 522.884L195.985 494.856V527.225L223.807 536.258L223.791 536.263H230.909H230.904L258.725 527.23V494.861L274.926 522.894L303.53 516.815L291.832 529.798L286.029 536.237L286.05 536.263H289.001L288.98 536.237L296.866 527.486L307.186 516.037H307.191L307.197 516.032L329.597 511.273L334.161 525.3L337.723 536.248L337.718 536.263H340.037L340.031 536.243L349.511 507.098H380.215L412.303 530.393L420.351 536.237L420.314 536.263H424.121L424.085 536.237L439.424 525.101L433.564 507.088H452.527L458.387 489.074L473.726 500.21L489.06 489.079L494.92 507.098H513.873L508.013 525.122L523.347 536.253L523.326 536.269H527.097L527.076 536.253L544.436 523.651L567.238 507.098H597.916L607.395 536.253L607.39 536.269H609.703V536.263L617.825 511.289L640.23 516.048L658.436 536.248L658.415 536.269H661.376L661.392 536.253L661.387 536.248L661.392 536.243L643.891 516.82L663.7 521.026L672.495 522.894L688.691 494.866V527.236L716.512 536.269L716.496 536.274H723.615H723.609L751.431 527.241V494.877L767.626 522.91L796.23 516.83L787.289 526.75L778.724 536.253L778.745 536.279H781.696L781.675 536.253L789.608 527.45L799.881 516.053H799.886L799.892 516.048L822.292 511.289L827.681 527.862L830.413 536.258L830.408 536.274H832.726L842.206 507.124H872.889L898.234 525.524L913.04 536.274H916.775L932.114 525.138L926.254 507.124H945.217L951.077 489.111L966.416 500.247L981.75 489.116L987.61 507.135H1006.56L1000.7 525.159L1016.02 536.279H1019.78L1037.13 523.687L1059.93 507.135H1090.61L1100.08 536.274H1102.4V536.269L1110.52 511.294L1132.92 516.053L1151.13 536.253L1151.11 536.274H1154.07L1154.08 536.258L1154.08 536.253L1154.08 536.248L1136.58 516.825L1154.19 520.567L1165.19 522.905L1181.38 494.877V527.241L1209.2 536.274L1209.19 536.279H1216.3H1216.3L1244.12 527.246V494.882L1260.32 522.915L1288.92 516.836L1277.22 529.819L1271.42 536.258L1271.44 536.279H1274.39L1274.37 536.253L1279.72 530.32L1292.58 516.053H1292.58L1292.59 516.048L1314.99 511.289L1320.38 527.862L1323.11 536.258L1323.1 536.274H1325.41L1334.89 507.124H1365.57L1399.37 531.661L1405.72 536.279H1409.46L1424.8 525.143L1418.94 507.13H1437.9L1443.76 489.116L1459.1 500.252V497.543L1444.47 486.924L1459.1 441.953V441.963V434.85L1450.06 407.063H1420.8L1459.1 379.265V376.551L1424.98 351.79L1420.82 348.774H1450.04L1450.05 348.758L1459.09 320.96L1459.1 320.976V313.843L1459.08 313.879L1444.46 268.902L1459.07 258.288L1459.1 258.304V255.595L1459.07 255.58L1443.74 266.711L1437.88 248.692H1418.92L1424.78 230.667L1409.45 219.537L1424.79 208.401L1418.93 190.387H1437.89L1443.75 172.374L1459.09 183.509V180.801L1444.46 170.182L1459.08 125.21V125.221V118.108L1450.05 90.3205H1450.04H1420.79L1459.08 62.5224V59.8089L1424.97 35.0479L1420.81 32.0317H1450.03L1450.04 32.0161L1459.08 4.21799L1459.08 4.23364V-2.89984L1459.07 -2.86328L1444.45 -47.8401L1459.06 -58.4542L1459.08 -58.4385V-61.1469L1459.06 -61.1625L1443.73 -50.0318L1437.87 -68.0507H1418.91L1424.77 -86.0748L1409.44 -97.2055L1424.78 -108.341L1418.92 -126.355H1437.88L1443.74 -144.369L1459.08 -133.233V-135.941L1444.45 -146.56L1459.07 -191.532V-191.522V-198.634L1450.04 -226.427H1420.78L1459.07 -254.225V-256.939L1426.76 -280.405L1420.8 -284.737H1450.02L1450.02 -284.752L1459.06 -312.55L1459.07 -312.535V-319.668L1459.06 -319.632L1444.43 -364.608L1459.05 -375.223L1459.07 -375.207ZM1436.27 -382.627L1441.86 -365.443L1413.19 -344.638L1403.57 -337.651L1404.62 -340.902L1418.19 -382.627H1436.27ZM1407.56 -412.612L1422.18 -401.998L1416.59 -384.814H1369.27L1407.56 -412.612ZM1366.25 -382.627H1415.88L1400.55 -335.464L1375.74 -317.45L1350.91 -335.464L1341.43 -364.614L1366.25 -382.627ZM1399.39 -179.285L1375.73 -196.463L1351.65 -178.987L1355.06 -194.992L1357.84 -208.074L1329.79 -224.256H1362.18L1368.96 -245.088L1371.22 -252.049L1380.26 -224.256H1414.02L1390.39 -207.098L1390.36 -207.077L1390.35 -207.072L1399.39 -179.285ZM1404.12 -164.767L1415.89 -128.573H1366.28L1341.44 -146.602L1350.92 -175.731L1375.73 -193.745L1400.56 -175.721L1404.12 -164.767ZM1399.39 137.452L1375.73 120.274L1351.65 137.75L1355.06 121.745L1357.84 108.663L1329.79 92.4809H1362.18L1368.58 72.813L1371.22 64.688L1380.26 92.4809H1414.02L1390.39 109.639L1390.36 109.66L1390.35 109.665L1399.39 137.452ZM1399.39 454.195L1375.73 437.016L1351.65 454.492L1355.16 438.018L1357.84 425.405L1329.79 409.223H1362.18L1368.58 389.555L1371.22 381.43L1380.26 409.223H1414.02L1390.39 426.386L1390.36 426.407L1390.35 426.412L1399.39 454.195ZM414.021 454.163L390.357 436.985L366.286 454.461L372.469 425.4L372.464 425.395L372.469 425.374L344.46 409.213H376.809L385.855 381.404L394.89 409.187H428.655L405.022 426.344L404.991 426.371L404.986 426.376L414.021 454.163ZM247.006 281.176L227.347 315.194L213.121 290.569L198.174 264.701V230.135L227.342 220.664L256.521 230.14V264.707L247.006 281.176ZM256.526 269.085V324.858L238.832 335.065L228.617 317.386L234.304 307.539L256.526 269.085ZM49.7093 329.336L49.7197 329.33L40.6897 301.559L64.3431 318.732L88.4196 301.256L82.2307 330.353L110.24 346.514H77.8959L68.8555 374.307L59.8151 346.514H26.0715L49.7093 329.351V329.336ZM49.7093 12.5986L49.7197 12.5934L40.6897 -15.1786L64.3431 1.99496L88.4196 -15.4812L82.2307 13.6162L110.24 29.7774H77.8959L68.8555 57.5702L59.8151 29.7774H26.0715L49.7093 12.6143V12.5986ZM49.7093 -304.144L49.7197 -304.149L40.6897 -331.921L64.3431 -314.747L88.4196 -332.224L82.2307 -303.126L110.24 -286.965H77.8959L68.8555 -259.172L59.8151 -286.965H26.0715L49.7093 -304.128V-304.144ZM223.801 -97.2316L195.98 -88.1987V-55.8346L179.785 -83.8622L151.144 -77.7776L168.681 -97.242L168.676 -97.2473L168.681 -97.2525L151.18 -116.675L160.811 -114.63L179.785 -110.601L195.98 -138.629V-106.259L223.801 -97.2316ZM542.389 -304.144L542.399 -304.149L533.369 -331.921L557.022 -314.747L581.099 -332.224L574.91 -303.126L602.924 -286.965H570.58L561.545 -259.172L552.505 -286.965H518.756L542.394 -304.128L542.389 -304.144ZM714.136 -97.9935L716.486 -97.2316L688.665 -88.1987V-55.8346L672.469 -83.8622L643.828 -77.7776L661.366 -97.242L661.361 -97.2473L661.366 -97.2525L643.859 -116.675L653.323 -114.666L672.459 -110.601L688.654 -138.629V-106.259L714.136 -97.9935ZM1035.08 -304.118L1026.05 -331.9L1049.71 -314.721L1073.79 -332.197L1069.77 -313.307L1067.6 -303.126L1095.66 -286.944H1063.26L1054.22 -259.151L1045.18 -286.944H1011.44L1035.08 -304.107V-304.118ZM1338.86 -145.762L1338.86 -145.752L1362.51 -128.583H1333.27L1324.23 -100.785L1321.72 -108.493L1316.43 -124.769L1295.06 -120.229L1314.63 -141.937L1298.43 -169.965L1326.48 -153.783L1347.67 -172.85L1338.86 -145.762ZM1338.86 -48.7063L1338.85 -48.7011L1347.66 -21.6128L1326.48 -40.6701L1298.43 -24.4881L1314.62 -52.5157L1295.02 -74.2709L1305.01 -72.1419L1316.43 -69.7101L1321.78 -86.174L1324.23 -93.6831L1333.27 -65.8851H1362.5L1338.85 -48.7168L1338.86 -48.7063ZM1338.86 170.975L1338.86 170.985L1362.51 188.154H1333.27L1324.23 215.952L1321.86 208.683L1316.43 191.968L1295.06 196.508L1314.62 174.8L1298.43 146.772L1326.48 162.954L1347.66 143.887L1338.86 170.975ZM1338.86 268.031L1338.85 268.036L1347.66 295.124L1326.48 276.067L1298.43 292.249L1314.62 264.221L1295.02 242.466L1305.01 244.595L1316.43 247.027L1321.78 230.563L1324.23 223.054L1333.27 250.852H1362.5L1338.85 268.02L1338.86 268.031ZM1325.4 346.535H1267.05L1296.23 296.048L1326.19 278.76L1348.99 299.268L1355.37 329.247L1325.4 346.535ZM1325.99 348.727H1360.59L1366.47 366.798L1370.07 377.877L1366.29 389.487L1360.59 407.026H1325.99L1275.46 377.877L1310.97 357.389L1325.99 348.727ZM1183.55 174.315L1198.5 148.447L1212.72 123.822L1233.23 159.302L1241.9 174.31V208.886L1212.72 218.357L1201.29 214.647L1183.55 208.886V174.315ZM1183.55 169.931V114.163L1201.24 103.956L1211.46 121.636L1210.28 123.671L1183.55 169.931ZM1220.22 132.401L1213.99 121.625L1224.21 103.945L1241.9 114.153V169.926L1220.22 132.401ZM1223.4 100.961L1212.72 119.439L1202.05 100.961L1183.55 111.632V90.2892H1162.19L1172.87 71.8111L1154.37 61.1448L1172.87 50.4733L1162.19 31.9951H1183.55V10.6522L1202.05 21.3237L1212.72 2.84555L1223.4 21.3237L1241.9 10.6574V31.9951H1263.25L1252.57 50.4733L1271.06 61.1448L1252.57 71.8111L1263.25 90.2892H1241.9V111.627L1223.4 100.961ZM690.858 174.31L707.372 145.729L720.032 123.822L740.536 159.302L749.206 174.31V208.886L720.032 218.357L690.858 208.886V174.31ZM690.858 169.931V114.163L708.553 103.956L718.768 121.63L718.006 122.951L690.858 169.931ZM727.526 132.401L721.301 121.625L731.517 103.945L749.211 114.153V169.926L727.526 132.401ZM730.712 100.955L720.032 119.434L709.357 100.955L690.858 111.627V90.2839H669.503L680.178 71.8058L661.684 61.1396L680.178 50.4681L669.503 31.99H690.858V10.647L709.357 21.3185L720.032 2.84033L730.712 21.3185L749.206 10.6522V31.99H770.561L759.881 50.4681L778.374 61.1396L759.881 71.8058L770.561 90.2839H749.206V111.622L730.712 100.955ZM198.174 174.31L211.486 151.271L227.347 123.817L247.006 157.835L256.521 174.304V208.876L227.347 218.347L198.174 208.876V174.31ZM198.174 169.931V114.163L215.868 103.956L226.084 121.63L224.397 124.553L198.174 169.931ZM234.309 131.477L228.622 121.63L238.837 103.951L256.532 114.158V169.931L234.309 131.477ZM238.033 100.955L227.353 119.434L216.678 100.955L198.179 111.627V90.2839H176.824L187.499 71.8058L169.005 61.1396L187.499 50.4681L176.824 31.99H198.179V10.647L216.678 21.3185L227.353 2.84033L238.033 21.3185L256.526 10.6522V31.99H277.882L267.202 50.4681L285.695 61.1396L267.202 71.8058L277.882 90.2839H256.526V111.622L238.033 100.955ZM84.7167 329.226L91.0884 299.268L102.098 289.363L113.88 278.76L143.848 296.048L173.021 346.535H114.726L84.7167 329.226ZM129.104 357.395L164.613 377.882L114.126 407.005H79.4889L70.0097 377.861L79.4784 348.732H114.079L129.104 357.395ZM113.598 276.067L100.338 287.996L92.3993 295.135L101.215 268.02L77.546 250.842H106.798L115.839 223.054L123.641 247.043L145.049 242.477L125.448 264.221L141.644 292.249L113.598 276.067ZM114.674 -224.261H173.021L143.848 -173.774L113.88 -156.486L105.91 -163.656L91.0988 -176.983L84.7167 -206.984L114.674 -224.261ZM114.131 -226.479H79.4941L70.015 -255.624L79.4836 -284.752H114.084L130.566 -275.245L164.613 -255.603L114.131 -226.479ZM166.812 59.8715L156.957 54.1888L118.471 31.99H174.291L184.506 49.6697L166.812 59.8715ZM166.812 62.4024L184.506 72.6094L174.291 90.2892H118.471L166.812 62.4024ZM158.936 1.0296L147.65 -18.5026L170.206 -5.49332L195.985 9.37894V29.793H175.56L158.936 1.0296ZM145.451 -22.2964L128.148 -52.2391L148.673 -75.0172L178.678 -81.3887L195.975 -51.4512V6.84802L145.451 -22.2964ZM147.524 -77.0471L125.119 -72.2723L116.998 -97.2368L125.119 -122.207L147.524 -117.447L165.731 -97.2473L147.524 -77.0471ZM128.154 -142.229L145.456 -172.172L195.985 -201.322V-143.022L178.688 -113.085L154.659 -118.188L148.684 -119.456L128.154 -142.229ZM102.385 -163.88L113.598 -153.793L141.649 -169.975L125.453 -141.942L145.018 -120.229L123.641 -124.769L115.844 -100.79L106.803 -128.583H77.5512L101.22 -145.767L92.4149 -172.84L102.385 -163.88ZM123.641 -69.7049L145.049 -74.2709L125.453 -52.5262L141.649 -24.4985L113.598 -40.6805L97.7629 -26.4345L92.4045 -21.6128L101.22 -48.7272L77.5512 -65.9059H106.803L115.844 -93.6936L123.641 -69.7049ZM99.3715 -24.9264L113.885 -37.9827L143.853 -20.6943L173.027 29.793H114.726L84.7167 12.4786L91.0884 -17.4799L99.3715 -24.9264ZM130.572 41.4977L164.618 61.1396L164.127 61.4213L114.131 90.2631H79.4941L70.015 61.1135L79.4836 31.9847H114.084L130.572 41.4977ZM114.674 92.4756H173.021L143.848 142.963L113.88 160.251L105.91 153.081L91.0988 139.754L84.7167 109.754L114.674 92.4756ZM103.539 153.901L113.593 162.949L141.644 146.767L125.448 174.795L145.012 196.508L123.636 191.968L115.839 215.947L106.798 188.154H77.546L101.215 170.975L92.4097 143.902L103.539 153.901ZM125.119 244.47L116.998 219.505L125.119 194.536L147.524 199.295L165.731 219.495L147.524 239.7L125.119 244.47ZM128.154 174.513L145.456 144.57L195.985 115.421V173.72L178.688 203.657L154.659 198.554L148.684 197.286L128.154 174.513ZM168.906 128.513L147.65 140.776L158.936 121.244L175.56 92.4809H195.985V112.895L168.906 128.513ZM247.006 -35.5666L227.347 -1.54828L211.486 -29.0019L198.174 -52.0409V-86.6071L227.342 -96.0784L256.521 -86.6018V-52.0356L247.006 -35.5666ZM256.526 -47.6522V8.11609L238.832 18.3232L228.617 0.643433L234.304 -9.20355L256.526 -47.6522ZM224.397 -2.27362L226.084 0.648651L215.868 18.3283L198.174 8.12128V-47.6574L224.397 -2.27362ZM329.247 -141.942L313.051 -169.97L341.102 -153.788L362.29 -172.85L353.49 -145.778L353.495 -145.773L353.49 -145.762L377.144 -128.594H347.897L338.856 -100.79L335.613 -110.758L331.059 -124.764L309.688 -120.224L329.247 -141.942ZM473.679 255.522L458.351 266.653L452.491 248.634H433.533L439.393 230.61L424.059 219.479L439.398 208.343L433.538 190.33H452.501L458.361 172.316L473.7 183.452L489.034 172.321L494.894 190.34H513.847L507.987 208.364L523.321 219.495L507.982 230.626L513.841 248.639H494.883L489.023 266.653L473.679 255.522ZM488.313 268.85L473.69 313.822L459.061 268.845L473.679 258.231L488.313 268.85ZM329.247 264.221L309.641 242.466L319.637 244.595L331.054 247.027L335.707 232.713L338.851 223.038L347.892 250.836H377.128L353.475 268.005L353.48 268.015H353.475L362.29 295.124L341.097 276.057L313.046 292.239L329.247 264.221ZM329.247 174.795L313.051 146.767L341.102 162.949L362.29 143.887L353.49 170.959L353.495 170.965L353.49 170.975L377.144 188.143H347.897L338.856 215.947L335.775 206.47L331.059 191.968L309.683 196.508L329.247 174.795ZM329.247 -52.5209L309.641 -74.2762L319.637 -72.1471L331.054 -69.7153L335.707 -84.024L338.851 -93.6988L347.892 -65.9007H377.128L353.475 -48.7324L353.48 -48.722H353.475L362.29 -21.6128L341.097 -40.6805L313.046 -24.4985L329.247 -52.5209ZM473.7 -133.28L489.034 -144.411L494.894 -126.392H513.847L507.987 -108.368L523.321 -97.2368L507.982 -86.1061L513.841 -68.0924H494.883L489.023 -50.0787L473.679 -61.2147L458.351 -50.084L452.491 -68.1028H433.533L439.393 -86.127L424.059 -97.2577L439.398 -108.394L433.538 -126.407H452.501L458.361 -144.421L473.7 -133.28ZM459.077 -146.607L471.747 -185.578L473.7 -191.579L488.329 -146.607L473.705 -135.993L459.077 -146.607ZM574.926 108.658L574.915 108.663L581.094 137.719L557.038 120.258H557.033H557.028L533.369 137.432L542.409 109.633L518.74 92.4496H552.505L561.535 64.6828L570.575 92.4756H602.935L574.926 108.637V108.658ZM510.572 207.529L516.16 190.345H563.488L545.684 203.271L525.19 218.149L510.572 207.529ZM540.158 231.716L563.478 248.645H516.15L510.562 231.466L525.19 220.852L540.158 231.716ZM372.469 108.658L372.475 108.637L344.466 92.4756H376.815L385.86 64.6671L394.896 92.4496H428.66L405.027 109.607L404.996 109.633L404.991 109.639L414.026 137.426L390.362 120.248L366.291 137.724L372.469 108.658ZM372.469 13.5901L366.291 -15.4865L390.357 1.98456L414.026 -15.1994L404.986 12.6039L428.629 29.7722H394.896L385.855 57.565L376.815 29.7722H344.46L372.475 13.611L372.469 13.5901ZM422.194 -95.9009L436.813 -85.2869L431.224 -68.1028H383.897L422.194 -95.9009ZM422.194 -98.6092L383.907 -126.407H431.235L436.823 -109.229L422.194 -98.6092ZM457.197 -46.5407L472.535 0.627777L463.062 29.7669H432.384L407.571 11.7533L417.055 -17.4016L442.939 -36.1928L457.197 -46.5407ZM438.009 36.556L471.83 61.1082L431.673 90.2578H396.483L387.004 61.1082L387.777 58.7339L396.483 31.9586H431.647L431.663 31.9691H431.694L438.009 36.556ZM435.429 31.9743H464.649L464.655 31.9586L473.69 4.17624L482.73 31.9743H511.961L475.037 58.7756L473.695 59.7515L440.479 35.6376L435.429 31.9743ZM473.695 62.465L511.987 90.2631H482.741L473.7 118.056L464.66 90.2631H435.402L473.695 62.465ZM475.565 61.1082L475.857 60.8943L515.696 31.9743H515.711L515.732 31.9586H550.907L560.386 61.1082L550.907 90.2578H515.716L475.565 61.1082ZM552.505 29.7722H518.756L542.394 12.6091L542.389 12.5986L542.399 12.5934L533.369 -15.1786L557.022 1.99496L581.099 -15.4812L574.91 13.6162L602.924 29.7774H570.58L561.545 57.5702L552.505 29.7722ZM557.028 -0.734192L532.189 -18.7688L516.86 -65.9059H566.496L591.32 -47.8871L581.846 -18.7479L557.028 -0.734192ZM539.782 -88.0056L527.055 -97.242L544.415 -109.844L567.217 -126.397H597.895L607.374 -97.2473L597.895 -68.0977H567.212L539.782 -88.0056ZM545.684 -113.471L525.19 -98.5936L510.572 -109.208L516.16 -126.392H563.488L545.684 -113.471ZM540.158 -85.0259L563.478 -68.0977H516.15L510.562 -85.2764L525.19 -95.8905L540.158 -85.0259ZM529.18 -20.9344L510.948 -34.1733L490.893 -48.7324L496.476 -65.9007H514.557L529.18 -20.9344ZM510.008 -32.1381L530.329 -17.3859L539.809 11.7585L515.006 29.7669H515.001H484.328L474.844 0.606903L490.172 -46.5407L510.008 -32.1381ZM473.69 -2.91547L459.061 -47.8923L473.679 -58.5064L488.308 -47.8871L473.69 -2.91547ZM427.819 -27.9217L418.194 -20.9344L432.817 -65.9059H450.893L456.476 -48.7272L427.819 -27.9217ZM430.514 -65.9112L415.18 -18.7479L390.367 -0.734192L365.539 -18.7583L356.07 -47.8871L380.904 -65.9164H430.514V-65.9112ZM375.217 31.99L384.696 61.1291L375.222 90.2631H340.575L302.063 68.0486L290.087 61.1396L325.027 40.9811L340.616 31.9847H375.217V31.99ZM390.357 122.966L415.191 140.99L430.519 188.138H380.888L356.07 170.124L365.544 140.975L390.357 122.966ZM420.325 219.485L380.168 248.634H349.49L340.016 219.49L349.49 190.345H380.194L420.325 219.485ZM422.194 220.836L436.813 231.45L431.224 248.634H383.897L422.194 220.836ZM422.194 218.128L383.907 190.33H431.235L436.823 207.509L422.194 218.128ZM421.39 152.967L418.204 143.172L431.418 152.763L456.497 170.965L450.908 188.138H432.828L421.39 152.967ZM417.05 139.623L407.571 110.468L407.607 110.442L432.389 92.4548H463.067L472.546 121.615L457.207 168.778L417.05 139.623ZM471.747 131.159L473.7 125.158L488.329 170.135L473.705 180.749L459.077 170.13L471.747 131.159ZM474.854 121.625L484.339 92.46H515.006L539.824 110.479L530.34 139.634L502.994 159.484L490.188 168.783L474.854 121.625ZM529.191 143.177L522.323 164.301L514.567 188.149H496.497L490.909 170.97L529.191 143.177ZM516.871 188.154L528.319 152.951L532.21 140.996L557.038 122.972L581.84 140.975L591.32 170.135L566.496 188.154H516.871ZM572.173 90.2631L562.694 61.1135L572.163 31.99H606.763L622.353 40.9864L657.292 61.1448L645.322 68.0486L606.815 90.2631H572.173ZM577.396 12.4838L583.768 -17.4746L587.027 -20.4073L606.559 -37.9774L636.527 -20.6891L665.701 29.7982H607.405L577.396 12.4838ZM606.283 -40.6753L587.345 -23.6427L585.084 -21.6075L593.9 -48.722L570.23 -65.9007H599.483L608.518 -93.6884L616.32 -69.7049L637.728 -74.2657L618.133 -52.5209L634.328 -24.4933L606.283 -40.6753ZM599.488 -128.589H570.236L593.905 -145.773L585.099 -172.845L592.871 -165.853L606.277 -153.788L634.328 -169.97L618.133 -141.937L637.697 -120.224L616.32 -124.764L608.523 -100.785L599.488 -128.589ZM591.314 -146.607L566.491 -128.589H516.865L528.313 -163.791L532.204 -175.752L557.033 -193.776L581.835 -175.773L591.314 -146.607ZM522.318 -152.436L514.562 -128.589H496.492L490.904 -145.773L529.191 -173.565L522.318 -152.436ZM450.908 -128.599H432.828L421.39 -163.776L418.204 -173.571L431.418 -163.979L456.497 -145.773L450.908 -128.599ZM430.519 -128.599H380.888L356.07 -146.613L365.544 -175.762L390.357 -193.771L415.191 -175.747L430.519 -128.599ZM420.325 -97.2577L380.168 -68.1081H349.49L340.016 -97.2525L349.49 -126.397H380.194L420.325 -97.2577ZM340.82 -37.9774L363.617 -17.4694L369.989 12.4838L339.984 29.793H281.684L310.858 -20.6943L340.82 -37.9774ZM336.229 31.99L298.308 53.8652L287.888 59.8767L270.194 49.6697L280.41 31.99H336.229ZM336.229 90.2892H280.415L270.199 72.6094L287.894 62.4024L336.229 90.2892ZM295.77 121.244L307.056 140.776L290.108 130.997L258.72 112.89V92.4756H279.151L295.77 121.244ZM281.684 92.4756H340.031L369.994 109.759L363.617 139.743L340.825 160.251L310.858 142.963L281.684 92.4756ZM356.065 268.855L380.899 250.826H430.514L415.18 297.989L390.367 316.003L365.539 297.979L356.065 268.855ZM418.277 295.552L432.822 250.826H450.898L456.481 268.005L423.39 292.03L418.199 295.803L418.277 295.552ZM496.476 250.836H514.557L529.18 295.808L510.948 282.569L490.893 268.01L496.476 250.836ZM516.86 250.836H566.496L591.32 268.855L581.846 297.994L557.028 316.008L532.189 297.974L516.86 250.836ZM539.782 228.737L527.055 219.5L544.415 206.898L567.217 190.345H597.895L607.374 219.495L597.895 248.645H567.212L539.782 228.737ZM599.488 188.154H570.236L593.905 170.975L585.099 143.902L594.255 152.137L606.277 162.954L634.328 146.772L618.133 174.805L637.697 196.519L616.32 191.979L608.523 215.957L599.488 188.154ZM606.565 160.251L595.837 150.597L583.783 139.754L577.401 109.754L607.353 92.4756H665.701L636.527 142.963L606.565 160.251ZM611.155 90.2892L659.491 62.4076L677.185 72.6147L666.97 90.2944H611.155V90.2892ZM659.491 59.8715L649.072 53.86L611.15 31.9847H666.97L677.185 49.6645L659.491 59.8715ZM650.116 -1.56912L640.329 -18.5026L663.486 -5.14371L688.665 9.38416V29.7982H668.239L650.116 -1.56912ZM638.135 -22.2964L620.833 -52.2391L641.358 -75.0172L671.362 -81.3887L688.659 -51.4512V6.84802L638.135 -22.2964ZM640.204 -77.0471L617.798 -72.2723L609.677 -97.2368L617.798 -122.207L640.204 -117.447L658.41 -97.2473L640.204 -77.0471ZM620.833 -142.229L638.135 -172.172L688.665 -201.322V-143.022L671.367 -113.085L647.364 -118.183L641.363 -119.456L620.833 -142.229ZM636.532 -173.774L606.565 -156.486L595.837 -166.14L583.783 -176.983L577.401 -206.984L607.353 -224.261H665.701L636.532 -173.774ZM606.81 -226.479H572.173L562.694 -255.629L572.163 -284.752H606.763L622.353 -275.756L657.292 -255.598L606.81 -226.479ZM570.57 -224.261H602.93L574.92 -208.1L574.926 -208.079L574.915 -208.074L581.094 -179.019L557.038 -196.479H557.033H557.028L533.369 -179.306L542.409 -207.104L518.74 -224.288H552.505L561.535 -252.054L570.57 -224.261ZM539.824 -206.263L530.34 -177.109L504.446 -158.307L490.193 -147.959L474.854 -195.112L484.339 -224.277H515.006L539.824 -206.263ZM482.741 -226.474L473.7 -198.681L464.66 -226.474H435.402L473.695 -254.272L511.987 -226.474H482.741ZM463.062 -224.282L472.541 -195.122L457.202 -147.959L417.045 -177.109L407.566 -206.263L407.592 -206.284L432.384 -224.282H463.062ZM405.017 -207.124L404.991 -207.104L404.986 -207.098L414.021 -179.311L390.357 -196.489L366.286 -179.013L372.469 -208.074L372.464 -208.079L372.469 -208.1L344.455 -224.261H376.804L385.85 -252.065L394.885 -224.282H428.65L405.017 -207.124ZM375.222 -226.479H340.575L290.087 -255.603L325.027 -275.761L340.616 -284.758H375.217L384.696 -255.618L375.222 -226.479ZM369.994 -206.978L363.617 -176.994L340.825 -156.486L310.858 -173.774L281.684 -224.267H340.031L369.994 -206.978ZM329.581 -122.217L334.14 -108.201L337.702 -97.242L334.307 -86.7949L329.581 -72.2671L314.91 -75.3929L307.176 -77.0419L297.785 -87.4629L288.964 -97.2525L294.485 -103.384L307.165 -117.458H307.171L307.176 -117.463L329.581 -122.217ZM326.552 -52.2391L309.254 -22.3016L258.72 6.84802V-51.446L276.023 -81.3887L306.027 -75.012L326.552 -52.2391ZM287.507 -7.2258L307.056 -18.5026L295.77 1.0296L279.146 29.793H258.715V9.37894L287.507 -7.2258ZM258.72 115.421L309.249 144.57L326.552 174.513L306.032 197.281H306.027L306.022 197.286L276.023 203.657L258.72 173.715V115.421ZM307.176 199.284H307.181L307.186 199.279L329.586 194.52L334.318 209.069L337.707 219.495L334.313 229.942L329.586 244.47L314.916 241.344L307.181 239.695L288.97 219.49L307.176 199.284ZM326.552 264.503L309.254 294.441L258.72 323.59V265.291L276.023 235.348L306.027 241.725L326.552 264.503ZM310.853 296.048L340.82 278.76L363.617 299.268L369.989 329.221L339.984 346.53H281.684L310.853 296.048ZM340.616 348.727H375.217L384.696 377.866L375.222 407H340.575L290.087 377.877L326.28 356.998L340.616 348.727ZM376.815 346.509H344.455L372.469 330.348L372.464 330.327L372.469 330.322L366.286 301.245L390.352 318.716L414.021 301.538L404.98 329.341L428.623 346.509H394.89L385.85 374.302L376.815 346.509ZM407.571 328.49L417.05 299.336L444.385 279.49L457.191 270.191L472.53 317.36L463.056 346.499H432.379L407.571 328.49ZM464.649 348.717L464.655 348.701L473.69 320.919L482.73 348.722H511.961L475.042 375.523L473.7 376.499L440.484 352.385L435.429 348.717H464.649ZM484.328 346.509L474.844 317.349L490.172 270.202L510.003 284.599L530.324 299.351L539.803 328.496L515.001 346.504H514.996H484.328V346.509ZM542.394 329.346L542.389 329.336L542.399 329.33L533.369 301.559L557.022 318.732L581.099 301.256L574.91 330.353L602.924 346.514H570.58L561.545 374.307L552.505 346.514H518.756L542.394 329.346ZM572.163 348.727H606.763L621.099 356.998L657.292 377.877L606.805 407H572.168L562.689 377.851L572.163 348.727ZM577.396 329.226L583.768 299.268L587.027 296.335L606.559 278.765L636.527 296.053L665.701 346.541H607.405L577.396 329.226ZM606.283 276.067L588.437 292.124L585.089 295.135L593.905 268.02L570.236 250.842H599.488L608.528 223.054L616.331 247.043L637.739 242.477L618.143 264.221L634.339 292.249L606.283 276.067ZM617.804 244.47L609.682 219.505L617.804 194.536L640.209 199.295L658.415 219.495L640.209 239.695L617.804 244.47ZM620.833 174.513L638.135 144.57L688.665 115.421V173.72L671.367 203.657L647.364 198.559L641.363 197.286L620.833 174.513ZM662.384 128.054L640.329 140.776L650.116 123.843L668.239 92.4809H688.665V112.895L662.384 128.054ZM749.206 -52.0356L740.536 -37.0277L720.032 -1.54828L707.372 -23.4548L690.858 -52.0356V-86.6018L720.027 -96.0731L749.206 -86.5966V-52.0356ZM749.206 -47.6522V8.11609L731.511 18.3232L721.296 0.643433L727.521 -10.1324L749.206 -47.6522ZM718.006 -0.676819L718.768 0.643433L708.553 18.3232L690.858 8.11609V-47.6574L718.006 -0.676819ZM821.931 -141.942L805.736 -169.97L833.787 -153.788L854.662 -172.574L854.975 -172.856L846.169 -145.767L846.18 -145.762L846.175 -145.752L869.823 -128.583H840.581L831.541 -100.785L829.034 -108.493L823.743 -124.769L802.372 -120.229L821.931 -141.942ZM966.369 255.549L951.035 266.679L945.175 248.66H926.217L932.077 230.636L916.743 219.511L932.082 208.375L926.222 190.361H945.186L951.046 172.347L966.385 183.483L981.718 172.353L987.578 190.372H1006.53L1000.67 208.396L1016.01 219.526L1000.67 230.657L1006.53 248.671H987.568L981.708 266.684L966.369 255.549ZM980.998 268.876L966.374 313.853L951.746 268.876L966.369 258.262L980.998 268.876ZM821.931 264.221L802.325 242.466L812.243 244.58L823.738 247.032L829.091 230.568L831.536 223.049L834.591 232.447L840.571 250.842L840.576 250.857H869.802L846.154 268.026L846.159 268.041L854.97 295.135L833.776 276.067L805.725 292.249L821.931 264.221ZM821.931 174.8L805.736 146.772L833.787 162.954L854.662 144.168L854.975 143.887L846.169 170.975L846.18 170.98L846.175 170.991L869.823 188.159H840.581L831.541 215.957L829.175 208.688L823.738 191.974L802.362 196.514L821.931 174.8ZM821.931 -52.5209L802.325 -74.2762L812.243 -72.1627L823.738 -69.7101L829.091 -86.174L831.536 -93.6936L834.591 -84.2953L840.571 -65.9007L840.576 -65.8851H869.802L846.154 -48.7168L846.159 -48.7011L854.97 -21.6075L833.776 -40.6753L805.725 -24.4933L821.931 -52.5209ZM966.39 -133.254L981.724 -144.384L987.583 -126.366H1006.54L1000.68 -108.341L1016.01 -97.2107L1000.67 -86.08L1006.53 -68.0663H987.573L981.713 -50.0527L966.369 -61.1886L951.035 -50.0579L945.175 -68.0768H926.217L932.077 -86.1009L916.743 -97.2316L932.082 -108.368L926.222 -126.381H945.186L951.046 -144.395L966.39 -133.254ZM951.761 -146.581L964.431 -185.552L966.385 -191.553L981.013 -146.576L966.39 -135.962L951.761 -146.581ZM1067.6 108.663L1073.79 137.755L1049.72 120.284L1026.05 137.463L1035.09 109.66L1011.42 92.4756H1045.19L1054.23 64.6828L1063.27 92.4756H1095.67L1067.6 108.663ZM1003.26 207.555L1008.84 190.372H1056.17L1038.37 203.297L1017.87 218.175L1003.26 207.555ZM1032.84 231.742L1056.16 248.671H1008.83L1003.25 231.492L1017.87 220.878L1032.84 231.742ZM865.154 108.668L837.103 92.4809H869.499L878.534 64.688L887.575 92.4809H921.339L897.67 109.665L906.705 137.447L883.052 120.274L858.975 137.755L865.154 108.668ZM865.154 13.611L862.511 1.17569L858.97 -15.4708L883.047 2.00543L906.716 -15.1733L897.675 12.6299L921.318 29.7982H887.58L878.54 57.5911L869.504 29.7982V29.793H837.119L865.154 13.611ZM914.879 -95.8748L929.502 -85.2607L923.914 -68.0768H876.586L914.879 -95.8748ZM914.879 -98.5832L912.221 -100.514L876.597 -126.381H923.924L929.513 -109.202L914.879 -98.5832ZM949.881 -46.5094L965.22 0.65387L955.741 29.7982H925.063L900.255 11.7846L909.734 -17.365L935.628 -36.1615L949.881 -46.5094ZM1095.66 29.7982H1063.26L1054.22 57.5911L1045.18 29.7982H1011.44L1035.08 12.6352L1035.07 12.6247L1035.08 12.6195L1026.04 -15.1577L1049.71 2.02106L1073.78 -15.4551L1069.17 6.24792L1067.6 13.6162L1095.66 29.7982ZM933.743 38.8051L964.51 61.1396L924.353 90.2892H889.162L879.683 61.1396L880.498 58.6348L889.162 31.99H924.332L924.347 32.0004H924.374L933.743 38.8051ZM928.108 32.0004H957.334L966.374 4.20236L975.415 32.0056H1004.64L966.374 59.7828L932.26 35.0218L928.108 32.0004ZM966.379 62.4911L1004.67 90.2892H975.425L966.385 118.087L957.344 90.2892H928.087L966.379 62.4911ZM968.244 61.1396L1008.37 32.0056H1008.4L1008.42 31.99H1043.59L1053.07 61.1396L1043.59 90.2892H1008.4L968.244 61.1396ZM1049.71 -0.70813L1024.88 -18.7375L1009.55 -65.8799H1059.19L1084 -47.861L1074.53 -18.7218L1049.71 -0.70813ZM1032.47 -87.9743L1019.74 -97.2107L1037.1 -109.813L1059.91 -126.366H1090.58L1100.06 -97.2264L1090.59 -68.0872H1059.87L1032.47 -87.9743ZM1038.37 -113.445L1017.87 -98.5675L1003.26 -109.182L1008.84 -126.366H1056.17L1038.37 -113.445ZM1032.84 -84.9946L1056.16 -68.0663H1008.83L1003.25 -85.2451L1017.87 -95.8592L1032.84 -84.9946ZM1021.86 -20.9031L1003.63 -34.142L983.578 -48.7011L989.166 -65.8747H1007.25L1021.86 -20.9031ZM1002.7 -32.112L1023.02 -17.3598L1032.5 11.7846L1007.69 29.7982H1007.69H977.013L967.534 0.643433L982.867 -46.5094L1002.7 -32.112ZM966.374 -2.88937L951.746 -47.8662L966.369 -58.4803L980.998 -47.861L966.374 -2.88937ZM920.509 -27.8956L910.883 -20.9083L910.962 -21.1535L925.507 -65.8799H943.583L949.166 -48.6959L920.509 -27.8956ZM923.204 -65.8851L907.87 -18.727L883.047 -0.70813L858.223 -18.727L848.75 -47.8714L873.573 -65.8903H923.204V-65.8851ZM867.901 31.99L877.38 61.1396L867.901 90.2892H833.301L783.257 61.4213L782.767 61.1396L816.813 41.4977L833.29 31.99H867.901ZM883.042 122.998L907.88 141.027L911.442 151.975L923.214 188.169H873.599L848.765 170.14L858.239 141.001L883.042 122.998ZM904.961 213.666L913.014 219.511L872.878 248.645H842.174L832.7 219.511L842.179 190.361H872.863L904.961 213.666ZM914.879 220.867L929.502 231.482L923.914 248.666H876.586L914.879 220.867ZM914.879 218.159L912.221 216.228L876.597 190.361H923.924L929.513 207.54L914.879 218.159ZM910.889 143.198L949.181 170.996L943.593 188.169H925.512L910.889 143.198ZM909.74 139.655L900.261 110.5L925.079 92.4861H955.757L965.236 121.641L949.897 168.804L909.74 139.655ZM966.385 125.189L981.013 170.166L966.39 180.78L951.761 170.161L966.385 125.189ZM967.539 121.641L977.023 92.4809H1007.7L1032.51 110.5L1023.03 139.66L997.136 158.461L982.883 168.809L967.539 121.641ZM1021.88 143.208L1015.07 164.129L1007.25 188.18H989.176L983.588 171.001L1021.88 143.208ZM1009.56 188.18L1020.97 153.087L1024.89 141.017L1049.72 122.998L1074.54 141.011L1084 170.135L1059.15 188.18H1009.56ZM1064.85 90.2892L1055.37 61.1396L1064.85 31.99H1099.46L1114.48 40.6524L1149.99 61.1396L1099.46 90.2892H1064.85ZM1070.08 12.5099L1071.31 6.74368L1076.46 -17.4746L1080.64 -21.2422L1099.25 -37.9879L1129.22 -20.6996L1158.4 29.7878H1100.05L1070.08 12.5099ZM1098.97 -40.6753L1080.84 -24.368L1077.78 -21.6128L1086.58 -48.6959L1086.59 -48.722L1062.96 -65.8747H1092.18L1101.22 -93.6779L1109.02 -69.6997L1130.43 -74.2657L1110.83 -52.5209L1127.02 -24.4933L1098.97 -40.6753ZM1101.22 -100.79L1092.18 -128.589H1062.96L1086.59 -145.741L1086.58 -145.767L1077.78 -172.85L1086.65 -164.866L1098.97 -153.788L1127.02 -169.97L1110.82 -141.942L1130.39 -120.229L1109.01 -124.769L1101.22 -100.79ZM1084 -146.602L1059.15 -128.557H1009.56L1020.97 -163.651L1024.89 -175.721L1049.72 -193.739L1074.54 -175.726L1084 -146.602ZM1015.07 -152.614L1007.25 -128.562H989.176L983.588 -145.741L1021.88 -173.534L1015.07 -152.614ZM943.598 -128.568H925.517L910.894 -173.539L949.186 -145.741L943.598 -128.568ZM911.437 -164.767L923.209 -128.573H873.594L848.76 -146.602L858.234 -175.741L883.042 -193.75L907.88 -175.721L911.437 -164.767ZM904.961 -103.071L913.014 -97.2264L872.878 -68.0924H842.174L832.7 -97.2264L842.179 -126.376H872.863L904.961 -103.071ZM833.505 -37.9774L856.302 -17.4694L860.145 0.596466L862.678 12.5099L832.711 29.7982H774.363L803.537 -20.6891L833.505 -37.9774ZM828.914 31.99L790.433 54.1888L780.578 59.8715L762.884 49.6645L773.099 31.9847H828.914V31.99ZM828.909 90.2892H773.094L762.879 72.6094L780.573 62.4024L828.909 90.2892ZM789.953 123.843L799.74 140.776L782.793 130.997L751.404 112.89V92.4756H771.835L789.953 123.843ZM774.363 92.4756H832.706L862.678 109.764L856.302 139.743L833.505 160.251L803.537 142.963L774.363 92.4756ZM848.75 268.871L873.573 250.852H923.204L907.87 298.01L883.047 316.029L858.223 298.015L848.75 268.871ZM910.967 295.584L925.512 250.857H943.588L949.171 268.041L920.509 288.847L910.883 295.834L910.967 295.584ZM989.166 250.862H1007.25L1021.87 295.834L1004.39 283.143L983.583 268.036L989.166 250.862ZM1009.55 250.862H1059.19L1084 268.881L1074.53 298.021L1049.71 316.034L1024.88 298.005L1009.55 250.862ZM1032.47 228.763L1019.74 219.526L1037.1 206.924L1059.91 190.372H1090.58L1100.06 219.511L1090.59 248.65H1059.87L1032.47 228.763ZM1092.18 188.154H1062.96L1086.59 171.001L1086.58 170.975L1077.78 143.892L1088.04 153.118L1098.97 162.954L1127.02 146.772L1110.83 174.805L1130.39 196.519L1109.02 191.979L1101.21 215.962L1092.18 188.154ZM1099.25 160.257L1090.19 152.1L1076.46 139.743L1070.08 109.769L1100.05 92.4809H1158.4L1129.22 142.968L1099.25 160.257ZM1103.84 90.2892L1152.18 62.4076L1169.87 72.6147L1159.66 90.2944H1103.84V90.2892ZM1152.18 59.8767L1141.4 53.6565L1103.84 31.99H1159.66L1169.87 49.6697L1152.18 59.8767ZM1144.3 1.03482L1133.02 -18.4974L1155.58 -5.4881L1181.35 9.38416V29.7982H1160.93L1144.3 1.03482ZM1130.83 -22.2964L1113.52 -52.2391L1134.05 -75.0172L1160.94 -80.7312L1164.05 -81.394L1181.35 -51.4564V6.84283L1130.83 -22.2964ZM1132.89 -77.0471L1110.49 -72.2723L1102.37 -97.2368L1110.49 -122.207L1132.89 -117.447L1151.1 -97.2473L1132.89 -77.0471ZM1113.52 -142.224L1130.83 -172.162L1181.35 -201.311V-143.012L1164.06 -113.074L1139.52 -118.288L1134.05 -119.451L1113.52 -142.224ZM1129.22 -173.774L1099.25 -156.486L1090.19 -164.642L1076.46 -176.999L1070.08 -206.978L1100.05 -224.267H1158.4L1129.22 -173.774ZM1099.46 -226.453H1064.86L1055.38 -255.603L1064.86 -284.752H1099.46L1115.95 -275.245L1149.99 -255.603L1149.5 -255.321L1099.46 -226.453ZM1063.26 -224.261H1095.66L1067.6 -208.079L1073.79 -178.987L1049.72 -196.458L1026.05 -179.279L1035.09 -207.083L1011.42 -224.267H1045.18L1054.22 -252.059L1063.26 -224.261ZM1032.51 -206.237L1023.03 -177.083L997.136 -158.281L982.883 -147.933L967.544 -195.096L977.028 -224.256H1007.7L1032.51 -206.237ZM975.425 -226.448L966.385 -198.65L957.344 -226.448H928.087L966.379 -254.246L1004.67 -226.448H975.425ZM955.751 -224.256L965.23 -195.101L949.892 -147.938L909.734 -177.088L900.255 -206.243L925.073 -224.256H955.751ZM897.665 -207.072L906.7 -179.29L883.047 -196.463L858.97 -178.982L865.159 -208.074V-208.079L837.108 -224.261H869.504L878.54 -252.054L887.58 -224.261H921.344L897.665 -207.072ZM867.901 -226.453H833.301L782.772 -255.603L816.818 -275.245L833.296 -284.752H867.906L877.385 -255.603L867.901 -226.453ZM862.678 -206.973L856.302 -176.994L833.505 -156.486L803.537 -173.774L774.363 -224.267H832.706L862.678 -206.973ZM822.26 -122.217L827.65 -105.654L830.387 -97.242L827.801 -89.2841L822.266 -72.2671L807.605 -75.3929L799.86 -77.0419L790.339 -87.609L781.649 -97.2525L787.195 -103.405L799.855 -117.453H799.86L799.865 -117.458L822.26 -122.217ZM819.231 -52.2391L801.934 -22.3016L751.399 6.84802V-51.446L768.702 -81.3835L798.706 -75.0067L819.231 -52.2391ZM780.192 -7.2258L799.74 -18.5026L789.953 -1.56912L771.83 29.793H751.399V9.37894L780.192 -7.2258ZM751.399 115.421L801.928 144.57L819.231 174.513L798.711 197.281H798.706L798.701 197.286L768.702 203.657L751.399 173.715V115.421ZM799.855 199.284L799.86 199.279L822.26 194.52L827.807 211.563L830.387 219.495L827.801 227.453L822.266 244.47L807.605 241.344L799.86 239.695L781.649 219.49L799.855 199.284ZM819.231 264.503L801.934 294.441L751.399 323.59V265.291L768.702 235.354L798.706 241.73L819.231 264.503ZM803.537 296.048L833.505 278.76L856.302 299.268L859.983 316.572L862.678 329.242L832.711 346.53H774.363L803.537 296.048ZM833.29 348.732H867.901L877.38 377.882L867.901 407.031H833.301L782.772 377.882L818.281 357.395L833.29 348.732ZM869.499 346.541L837.108 346.535L865.159 330.353V330.348L862.313 316.963L858.975 301.272L883.052 318.748L906.721 301.569L897.681 329.372L921.324 346.541H887.585L878.545 374.333L869.499 346.541ZM900.255 328.522L909.734 299.372L935.628 280.576L949.881 270.228L965.22 317.391L955.741 346.535H925.063L900.255 328.522ZM957.334 348.743L966.374 320.945L975.415 348.748H1004.64L967.722 375.549L966.379 376.525L930.98 350.83L928.113 348.748H957.334V348.743ZM977.013 346.541L967.534 317.391L982.867 270.238L1001.86 284.03L1023.02 299.388L1032.5 328.527L1007.69 346.541H1007.69H977.013ZM1035.08 329.372L1035.07 329.362L1035.08 329.357L1026.04 301.579L1049.71 318.758L1073.78 301.282L1069.41 321.842L1067.6 330.353L1095.65 346.535H1063.26L1054.22 374.328L1045.18 346.535H1011.44L1035.08 329.372ZM1064.85 348.727H1099.46L1114.48 357.389L1149.99 377.877L1099.46 407.026H1064.86L1055.38 377.877L1064.85 348.727ZM1070.08 329.252L1071.46 322.755L1076.46 299.273L1099.25 278.765L1129.22 296.053L1158.4 346.541H1100.05L1070.08 329.252ZM1098.97 276.067L1078.03 294.9L1077.78 295.13L1086.58 268.046L1086.59 268.02L1062.96 250.862H1092.18L1101.22 223.059L1109.02 247.037L1130.43 242.471L1110.83 264.216L1127.02 292.244L1098.97 276.067ZM1110.49 244.47L1102.37 219.505L1110.49 194.536L1132.9 199.295L1151.1 219.495L1132.9 239.695L1110.49 244.47ZM1113.52 174.513L1130.83 144.57L1181.35 115.421V173.72L1164.06 203.657L1151.41 200.97L1134.05 197.281L1113.52 174.513ZM1155.58 127.767L1133.02 140.776L1144.3 121.244L1160.93 92.4809H1181.35V112.895L1155.58 127.767ZM1241.9 -52.0356L1233.23 -37.0277L1212.72 -1.54828L1196.86 -29.0019L1183.55 -52.0409V-86.6123L1212.72 -96.0836L1241.9 -86.6071V-52.0356ZM1241.9 -47.6522V8.12128L1224.21 18.3283L1213.99 0.648651L1220.22 -10.1272L1241.9 -47.6522ZM1209.77 -2.27362L1211.46 0.648651L1201.24 18.3283L1183.55 8.12128V-47.6574L1209.77 -2.27362ZM1311.92 -52.2339L1294.62 -22.2964L1244.09 6.85324V-51.446L1261.39 -81.3835L1291.4 -75.0067L1311.92 -52.2339ZM1274.34 -97.2525L1292.54 -117.453H1292.55L1292.56 -117.458L1314.96 -122.217L1320.34 -105.654L1323.08 -97.242L1320.5 -89.2841L1314.96 -72.2671L1300.29 -75.3929L1292.56 -77.0419L1274.34 -97.2525ZM1275.48 -8.72348L1292.43 -18.5026L1282.64 -1.56912L1264.52 29.793H1244.09V9.37894L1275.48 -8.72348ZM1255.57 72.6094L1273.27 62.4024L1321.6 90.2839H1265.79L1255.57 72.6094ZM1282.64 123.843L1292.43 140.776L1275.48 130.997L1244.09 112.89V92.4756H1264.53L1282.64 123.843ZM1255.57 49.6645L1265.79 31.9847H1321.6L1284.05 53.6512L1273.26 59.8715L1255.57 49.6645ZM1244.09 115.421L1294.62 144.57L1311.92 174.513L1291.4 197.281H1291.4L1291.39 197.286L1261.39 203.657L1244.09 173.715V115.421ZM1292.54 199.29H1292.55L1292.56 199.284L1314.96 194.525L1320.5 211.568L1323.08 219.5L1320.5 227.458L1314.96 244.475L1300.29 241.349L1292.56 239.7L1274.34 219.495L1292.54 199.29ZM1311.92 264.503L1294.62 294.441L1244.09 323.59V265.291L1261.39 235.354L1291.4 241.73L1311.92 264.503ZM1326.19 160.257L1296.23 142.968L1267.05 92.4756H1325.4L1355.37 109.764L1352.5 123.232L1348.99 139.743L1326.19 160.257ZM1275.46 61.1396L1310.97 40.6524L1325.99 31.99H1360.59L1366.47 50.061L1370.07 61.1396L1366.29 72.7503L1360.59 90.2892H1325.99L1275.46 61.1396ZM1325.4 29.7982H1267.05L1296.23 -20.6891L1326.19 -37.9774L1348.99 -17.4694L1355.37 12.5099L1325.4 29.7982ZM1326.19 -156.486L1296.23 -173.774L1267.05 -224.267H1325.4L1355.37 -206.978L1352.5 -193.51L1348.99 -176.999L1326.19 -156.486ZM1275.95 -255.316L1275.46 -255.598L1309.5 -275.239L1325.99 -284.747H1360.59L1366 -268.106L1370.07 -255.598L1366.62 -244.978L1360.59 -226.448H1325.99L1275.95 -255.316ZM1325.4 -286.944H1267.05L1296.23 -337.431L1326.19 -354.72L1348.99 -334.212L1355.37 -304.232L1325.4 -286.944ZM1321.6 -284.752L1283.12 -262.554L1273.26 -256.871L1255.57 -267.078L1265.78 -284.758H1321.6V-284.752ZM1321.6 -226.453H1265.79L1255.57 -244.133L1273.27 -254.34L1321.6 -226.453ZM1282.64 -192.899L1292.43 -175.966L1275.48 -185.745L1244.09 -203.853V-224.267H1264.53L1282.64 -192.899ZM1294.62 -172.167L1311.92 -142.224L1291.4 -119.456H1291.4L1291.39 -119.451L1261.39 -113.08L1244.09 -143.022V-201.316L1294.62 -172.167ZM1260.29 -110.596L1288.89 -116.675L1271.39 -97.2525L1288.94 -77.7776L1260.29 -83.8622L1244.09 -55.8294V-88.1987L1216.28 -97.2316L1244.09 -106.259V-106.265V-138.629L1260.29 -110.596ZM1241.9 -146.811L1220.22 -184.336L1213.99 -195.112L1224.21 -212.792L1241.9 -202.585V-146.811ZM1233.23 -157.435L1241.9 -142.428V-107.851L1212.72 -98.3796L1183.55 -107.851V-142.422L1196.86 -165.461L1212.72 -192.915L1233.23 -157.435ZM1209.77 -192.19L1183.55 -146.811V-202.579L1201.24 -212.786L1211.46 -195.107L1209.77 -192.19ZM1188.82 -103.838L1209.18 -97.2316L1181.35 -88.1987V-55.8346L1165.16 -83.8622L1160.85 -82.949L1136.52 -77.7829L1154.06 -97.2473L1154.05 -97.2525L1154.06 -97.2577L1136.55 -116.68L1145.34 -114.812L1165.16 -110.601L1179.72 -135.811L1181.35 -138.629V-106.265L1188.82 -103.838ZM1181.35 -203.847L1154.27 -188.229L1133.02 -175.966L1144.3 -195.498L1160.93 -224.261H1181.35V-203.847ZM1159.66 -226.453H1103.84L1152.18 -254.335L1169.87 -244.128L1159.66 -226.453ZM1152.18 -256.866L1142.33 -262.548L1103.84 -284.747H1159.66L1169.87 -267.067L1152.18 -256.866ZM1144.3 -315.708L1133.02 -335.24L1155.58 -322.23L1181.35 -307.358V-286.944H1160.93L1144.3 -315.708ZM1158.4 -286.944H1100.05L1070.08 -304.232L1071.85 -312.53L1076.46 -334.212L1080.64 -337.979L1099.25 -354.725L1129.22 -337.437L1158.4 -286.944ZM1043.59 -284.747L1053.07 -255.598L1043.59 -226.448H1008.4L968.244 -255.598L1008.37 -284.731H1008.4L1008.42 -284.747H1043.59ZM966.379 -256.954L932.265 -281.715L928.108 -284.737H957.334L966.374 -312.535L975.415 -284.731H1004.64L966.379 -256.954ZM933.743 -277.937L964.51 -255.603L924.353 -226.453H889.162L879.683 -255.603L880.498 -258.108L889.162 -284.752H924.332L924.347 -284.742H924.374L933.743 -277.937ZM887.575 -286.944L878.534 -259.151L869.499 -286.944V-286.949H837.113L865.164 -303.131V-303.137L862.516 -315.567L858.975 -332.213L883.052 -314.737L906.721 -331.916L897.681 -304.112L921.324 -286.944H887.575ZM860.145 -316.141L862.678 -304.227L832.711 -286.939H774.363L803.537 -337.426L833.505 -354.715L856.302 -334.206L860.145 -316.141ZM828.914 -284.752L790.433 -262.554L780.578 -256.871L762.884 -267.078L773.099 -284.758H828.914V-284.752ZM828.909 -226.453H773.094L762.879 -244.133L780.573 -254.34L828.909 -226.453ZM789.953 -192.899L799.74 -175.966L780.192 -187.243L751.404 -203.853V-224.267H771.835L789.953 -192.899ZM801.928 -172.167L819.231 -142.224L798.711 -119.456H798.706L798.701 -119.451L768.702 -113.08L751.399 -143.022V-201.316L801.928 -172.167ZM767.6 -110.596L796.204 -116.675L784.453 -103.634L778.703 -97.2525L785.31 -89.9207L796.251 -77.7776L767.605 -83.8622L751.404 -55.8294V-88.1987L723.589 -97.2316L751.404 -106.259V-106.265V-138.629L767.6 -110.596ZM749.206 -146.811L727.521 -184.336L721.296 -195.107L731.511 -212.786L749.206 -202.579V-146.811ZM740.536 -157.435L749.206 -142.428V-107.851L720.032 -98.3796L690.858 -107.851V-142.422L707.372 -171.003L720.032 -192.91L740.536 -157.435ZM718.006 -193.792L690.858 -146.811V-202.579L708.553 -212.786L718.768 -195.107L718.006 -193.792ZM688.665 -203.847L663.486 -189.32L640.329 -175.961L650.116 -192.894L668.239 -224.256H688.665V-203.847ZM666.97 -226.453H611.155L659.491 -254.335L677.185 -244.128L666.97 -226.453ZM659.491 -256.866L649.072 -262.877L611.15 -284.752H666.97L677.185 -267.073L659.491 -256.866ZM650.116 -318.306L640.329 -335.24L663.486 -321.881L688.665 -307.353V-286.939H668.239L650.116 -318.306ZM665.706 -286.944H607.405L577.396 -304.258L583.768 -334.217L587.027 -337.15L606.559 -354.72L636.527 -337.431L665.706 -286.944ZM550.907 -284.778L560.386 -255.629L550.907 -226.479H515.716L475.559 -255.629L515.69 -284.763H515.706L515.727 -284.778H550.907ZM473.7 -256.986L439.951 -281.486L435.429 -284.768H464.649L464.655 -284.784L473.69 -312.566L482.73 -284.763H511.961L473.7 -256.986ZM439.513 -279.09L471.83 -255.629L431.673 -226.479H396.483L387.004 -255.629L387.819 -258.134L396.483 -284.778H431.647L431.663 -284.768H431.694L439.513 -279.09ZM394.89 -286.97L385.85 -259.177L376.809 -286.97H344.455L372.469 -303.131L372.464 -303.152L372.469 -303.157L366.286 -332.234L390.352 -314.763L414.021 -331.947L404.98 -304.144L428.623 -286.975H394.89V-286.97ZM369.994 -304.253L339.99 -286.944H281.684L310.858 -337.431L340.825 -354.72L363.622 -334.212L369.994 -304.253ZM336.229 -284.752L298.308 -262.877L287.888 -256.866L270.194 -267.073L280.41 -284.752H336.229ZM336.229 -226.453H280.415L270.199 -244.133L287.894 -254.34L336.229 -226.453ZM295.77 -195.498L307.056 -175.966L287.507 -187.243L258.72 -203.853V-224.267H279.151L295.77 -195.498ZM309.249 -172.167L326.552 -142.224L306.032 -119.456H306.027L306.022 -119.451L276.023 -113.08L258.72 -143.022V-201.316L309.249 -172.167ZM274.915 -110.596L303.52 -116.675L292.04 -103.937L286.014 -97.2525L292.296 -90.2808L303.562 -77.7776L274.915 -83.8622L258.715 -55.8294V-88.1987L230.899 -97.2316L258.715 -106.259V-138.629L274.915 -110.596ZM256.526 -146.811L234.309 -185.26L228.622 -195.107L238.837 -212.786L256.532 -202.579V-146.811H256.526ZM247.006 -158.902L256.521 -142.433V-107.861L227.347 -98.3901L198.174 -107.861V-142.433L211.486 -165.472L227.347 -192.925L247.006 -158.902ZM224.397 -192.19L198.174 -146.811V-202.579L215.868 -212.786L226.084 -195.107L224.397 -192.19ZM195.98 -203.847L170.201 -188.975L147.645 -175.966L158.931 -195.498L175.554 -224.261H195.98V-203.847ZM174.291 -226.453H118.471L166.806 -254.335L184.501 -244.128L174.291 -226.453ZM166.812 -256.866L156.957 -262.548L118.471 -284.747H174.291L184.506 -267.067L166.812 -256.866ZM158.936 -315.708L147.65 -335.24L170.206 -322.23L195.985 -307.358V-286.944H175.56L158.936 -315.708ZM173.021 -286.944H114.726L84.7167 -304.258L91.0884 -334.217L99.3715 -341.669L113.885 -354.725L143.853 -337.437L173.021 -286.944ZM77.8907 -224.261H110.25L82.2412 -208.1L82.2464 -208.079L82.236 -208.074L88.4144 -179.019L64.3588 -196.479H64.3536H64.3484L40.6897 -179.306L49.7302 -207.104L26.0611 -224.288H59.8255L68.8555 -252.054L77.8907 -224.261ZM64.3536 -193.771L89.156 -175.768L98.6351 -146.607L73.8118 -128.589H24.1861L35.6342 -163.791L39.5251 -175.752L64.3536 -193.771ZM74.5378 -126.397H105.216L114.695 -97.2473L105.216 -68.0977H74.5325L47.1032 -88.0056L34.3755 -97.242L51.7357 -109.844L74.5378 -126.397ZM98.6403 -47.8871L89.1664 -18.7479L64.3536 -0.734192L39.5146 -18.7688L35.958 -29.7116L24.1861 -65.9059H73.8223L98.6403 -47.8871ZM77.8907 92.4756H110.25L82.2412 108.637L82.2464 108.658L82.236 108.663L88.4144 137.719L64.3588 120.258H64.3536H64.3484L40.6897 137.432L49.7302 109.633L26.0611 92.4496H59.8255L68.8555 64.6828L77.8907 92.4756ZM64.3536 122.972L89.156 140.975L98.6351 170.135L73.8118 188.154H24.1861L35.6342 152.951L39.5251 140.996L64.3536 122.972ZM74.5378 190.345H105.216L114.695 219.495L105.216 248.645H74.5325L47.1032 228.737L34.3755 219.5L51.7357 206.898L74.5378 190.345ZM98.6403 268.855L89.1664 297.994L64.3536 316.008L39.5146 297.974L35.958 287.031L24.1861 250.836H73.8223L98.6403 268.855ZM77.8907 409.218H110.25L82.2412 425.379L82.2464 425.4L82.236 425.405L88.4144 454.461L64.3588 437H64.3536H64.3484L40.6897 454.174L49.7302 426.376L26.0611 409.192H59.8255L68.8555 381.425L77.8907 409.218ZM84.7167 426.496L114.669 409.218H173.016L143.842 459.705L113.875 476.994L105.905 469.824L91.0936 456.496L84.7167 426.496ZM118.471 407.026L166.806 379.145L184.501 389.352L174.285 407.031H118.471V407.026ZM166.812 376.614L156.027 370.394L118.471 348.727H174.291L184.506 366.407L166.812 376.614ZM158.936 317.772L147.65 298.24L170.206 311.249L195.985 326.121V346.535H175.56L158.936 317.772ZM145.451 294.441L128.148 264.498L148.673 241.72L178.678 235.348L195.975 265.286V323.585L145.451 294.441ZM179.785 232.875L151.144 238.959L168.681 219.495L168.676 219.49L168.681 219.485L151.18 200.062L160.811 202.108L179.785 206.136L195.98 178.108V210.478L223.801 219.511L195.98 228.544V260.908L179.785 232.875ZM198.174 269.085L224.903 315.351L226.078 317.386L215.863 335.065L198.168 324.858V269.085H198.174ZM230.904 219.511L258.72 210.483V178.114L274.921 206.147L303.525 200.067L286.024 219.49L303.572 238.965L274.926 232.88L258.725 260.913V228.544L230.904 219.511ZM258.72 326.121L290.108 308.014L307.056 298.234L295.77 317.767L279.146 346.53H258.715V326.121H258.72ZM280.415 348.727H336.229L299.117 370.138L287.894 376.614L270.199 366.407L280.415 348.727ZM336.229 407.026H280.415L270.199 389.346L287.894 379.139L336.229 407.026ZM295.77 437.981L307.056 457.514L290.108 447.734L258.72 429.627V409.213H279.151L295.77 437.981ZM281.684 409.218H340.031L369.994 426.501L363.617 456.486L340.825 476.994L310.858 459.705L281.684 409.218ZM396.483 407L387.004 377.851L388.419 373.504L396.483 348.706H431.647L431.663 348.717H431.694L439.032 354.045L471.83 377.851L470.567 378.769L431.673 407H396.483ZM473.695 379.207L511.987 407.005H482.741L473.7 434.798L464.66 407.005H435.402L473.695 379.207ZM475.565 377.851L515.696 348.717H515.711L515.732 348.701H550.907L560.386 377.851L550.907 407H515.716L475.565 377.851ZM552.505 409.192L561.535 381.425L570.575 409.218H602.935L574.926 425.379L574.931 425.4L574.92 425.405L581.099 454.461L557.043 437H557.038H557.033L533.374 454.174L542.415 426.376L518.746 409.192H552.505ZM577.401 426.496L607.353 409.218H665.701L636.527 459.705L606.559 476.994L595.832 467.34L583.778 456.496L577.401 426.496ZM611.155 407.026L659.491 379.145L677.185 389.352L666.97 407.031H611.155V407.026ZM659.491 376.614L648.267 370.138L611.155 348.727H666.975L677.19 366.407L659.491 376.614ZM650.116 315.173L640.329 298.24L663.486 311.599L688.665 326.126V346.541H668.239L650.116 315.173ZM638.135 294.441L620.833 264.498L641.358 241.72L671.362 235.348L688.659 265.286V323.585L638.135 294.441ZM672.469 232.875L643.828 238.959L661.366 219.495L661.361 219.49L661.366 219.485L643.859 200.062L653.323 202.071L672.459 206.136L688.654 178.108V210.478L714.125 218.744L716.475 219.505L688.654 228.538V260.902L672.469 232.875ZM690.858 269.085L718.632 317.156L718.763 317.386L708.547 335.065L690.853 324.858V269.085H690.858ZM710.328 298.401L690.858 264.701V230.135L720.027 220.664L749.206 230.14V264.707L740.536 279.715L720.032 315.194L710.328 298.401ZM727.526 306.61L749.211 269.085V324.858L731.517 335.065L721.301 317.386L727.526 306.61ZM723.583 219.511L751.399 210.483V210.478V178.114L767.595 206.147L796.199 200.067L778.693 219.49L796.241 238.965L767.595 232.88L751.394 260.913V228.544L723.583 219.511ZM751.399 326.121L782.787 308.014L799.735 298.234L789.948 315.168L771.825 346.53H751.394V326.121H751.399ZM773.099 348.727H828.914L791.358 370.394L780.573 376.614L762.879 366.407L773.099 348.727ZM828.909 407.026H773.094L762.879 389.346L780.573 379.139L828.909 407.026ZM789.953 440.58L799.74 457.514L782.793 447.734L751.404 429.627V409.213H771.835L789.953 440.58ZM774.363 409.218H832.706L862.678 426.506L856.302 456.486L833.505 476.994L803.537 459.705L774.363 409.218ZM865.154 425.405L837.098 409.218H869.494L878.529 381.425L887.57 409.218H921.334L897.665 426.402L906.7 454.184L883.047 437.011L858.97 454.492L865.154 425.405ZM889.168 407.026L879.689 377.877L880.461 375.502L889.168 348.727H924.337L924.353 348.737H924.379L931.664 354.029L964.515 377.877L964.181 378.117L924.358 407.026H889.168ZM966.379 379.233L1004.67 407.031H975.425L966.385 434.83L957.344 407.031H928.087L966.379 379.233ZM968.244 377.877L968.536 377.663L1008.37 348.743H1008.4L1008.42 348.727H1043.59L1053.07 377.877L1043.59 407.026H1008.4L968.244 377.877ZM1045.18 409.218L1054.22 381.425L1063.26 409.218H1095.66L1067.61 425.4L1073.8 454.492L1049.73 437.021L1026.06 454.2L1035.1 426.397L1011.43 409.213H1045.18V409.218ZM1070.08 426.506L1100.05 409.218H1158.4L1129.22 459.705L1099.25 476.994L1088.35 467.183L1076.46 456.48L1070.08 426.506ZM1103.84 407.026L1152.18 379.145L1169.87 389.352L1159.66 407.031H1103.84V407.026ZM1152.18 376.614L1141.4 370.394L1103.84 348.727H1159.66L1169.87 366.407L1152.18 376.614ZM1144.3 317.772L1133.02 298.24L1155.58 311.249L1181.35 326.121V346.535H1160.93L1144.3 317.772ZM1130.83 294.441L1113.52 264.498L1134.05 241.72L1160.94 236.006L1164.05 235.343L1181.35 265.281V323.58L1130.83 294.441ZM1165.16 232.875L1160.85 233.788L1136.52 238.954L1154.06 219.49L1154.05 219.485L1154.06 219.479L1136.55 200.057L1154.17 203.798L1165.16 206.136L1181.35 178.108V210.478L1209.18 219.511L1181.35 228.544V260.908L1165.16 232.875ZM1183.55 269.085L1210.28 315.351L1211.45 317.386L1201.24 335.065L1183.54 324.858V269.085H1183.55ZM1198.5 290.569L1183.55 264.701V230.13L1212.72 220.659L1241.9 230.135V264.701L1233.23 279.709L1212.72 315.189L1198.5 290.569ZM1220.22 306.615L1241.9 269.09V324.864L1224.21 335.071L1213.99 317.391L1220.22 306.615ZM1216.28 219.511L1244.09 210.483V178.119L1260.29 206.152L1288.89 200.072L1271.39 219.495L1288.94 238.97L1260.29 232.885L1244.09 260.918V228.549L1216.28 219.511ZM1244.09 326.126L1275.48 308.019L1292.42 298.24L1282.64 315.173L1264.51 346.535H1244.08V326.126H1244.09ZM1265.79 348.727H1321.6L1284.05 370.394L1273.26 376.614L1255.57 366.407L1265.79 348.727ZM1321.6 407.026H1265.79L1255.57 389.346L1273.27 379.139L1321.6 407.026ZM1282.64 440.58L1292.43 457.514L1275.48 447.734L1244.09 429.627V409.213H1264.53L1282.64 440.58ZM1267.05 409.218H1325.4L1355.37 426.506L1352.59 439.536L1348.99 456.486L1326.19 476.994L1296.23 459.705L1267.05 409.218ZM1371.22 374.328L1368.95 367.33L1362.18 346.535H1329.79L1357.85 330.353L1351.66 301.277L1375.73 318.748L1399.4 301.564L1390.35 329.367L1414 346.535H1380.26L1371.22 374.328ZM1375.74 316.034L1350.91 298.021L1341.43 268.871L1366.25 250.857H1415.88L1400.55 298.021L1375.74 316.034ZM1365.56 248.65H1334.86L1325.38 219.5L1334.86 190.361H1365.54L1405.69 219.511L1365.56 248.65ZM1341.44 170.14L1350.91 141.011L1375.73 122.998L1400.56 141.022L1415.89 188.169H1366.28L1341.44 170.14ZM1371.22 57.5911L1368.95 50.5933L1362.18 29.7982H1329.79L1357.85 13.6162L1351.66 -15.4604L1375.73 2.01065L1399.4 -15.1733L1390.35 12.6299L1414 29.7982H1380.26L1371.22 57.5911ZM1375.74 -0.70813L1350.91 -18.7218L1341.43 -47.8714L1366.25 -65.8851H1415.88L1400.55 -18.7218L1375.74 -0.70813ZM1365.56 -68.0924H1334.86L1325.38 -97.242L1334.86 -126.381H1365.54L1405.69 -97.2316L1365.56 -68.0924ZM1368.38 -267.892L1362.18 -286.939H1329.79L1357.85 -303.121L1351.66 -332.197L1375.73 -314.726L1399.4 -331.905L1390.35 -304.102L1414 -286.934H1380.26L1371.23 -259.141L1368.38 -267.892ZM1305.01 -388.884L1316.43 -386.452L1322.1 -403.897L1324.23 -410.425L1333.27 -382.627H1362.5L1338.85 -365.459L1338.86 -365.449L1338.85 -365.443L1347.66 -338.355L1326.48 -357.412L1298.43 -341.23L1314.62 -369.258L1295.02 -391.013L1305.01 -388.884ZM1244.09 -368.188L1261.39 -398.126L1291.4 -391.749L1311.92 -368.971L1294.62 -339.033L1244.09 -309.884V-368.188ZM1244.09 -307.353L1272.88 -323.963L1292.42 -335.24L1282.64 -318.306L1264.51 -286.944H1244.08V-307.353H1244.09ZM1183.55 -403.344L1212.72 -412.815L1241.9 -403.339V-368.773L1233.23 -353.765L1212.72 -318.285L1196.86 -345.739L1183.55 -368.778V-403.344ZM1241.9 -364.395V-308.621L1224.21 -298.414L1213.99 -316.094L1220.22 -326.87L1241.9 -364.395ZM1183.55 -364.395L1209.77 -319.016L1211.46 -316.094L1201.24 -298.414L1183.55 -308.621V-364.395ZM1183.55 -284.752V-306.095L1202.05 -295.424L1212.72 -313.902L1223.4 -295.424L1241.9 -306.09V-284.752H1263.25L1252.57 -266.274L1271.06 -255.603L1252.57 -244.936L1263.25 -226.458H1241.9V-205.121L1223.4 -215.787L1212.72 -197.309L1202.05 -215.787L1183.55 -205.115V-226.458H1162.19L1172.87 -244.936L1154.37 -255.603L1172.87 -266.274L1162.19 -284.752H1183.55ZM1134.05 -391.754L1160.95 -397.468L1164.06 -398.131L1181.35 -368.193V-309.889L1130.83 -339.039L1113.52 -368.981L1134.05 -391.754ZM1092.17 -382.617L1101.22 -410.42L1109.02 -386.442L1130.42 -391.008L1110.82 -369.263L1127.02 -341.236L1098.97 -357.418L1081.54 -341.742L1077.78 -338.355L1086.58 -365.438L1086.59 -365.464L1062.96 -382.617H1092.17ZM1084 -364.598L1074.53 -335.459L1049.71 -317.445L1024.88 -335.475L1009.55 -382.617H1059.19L1084 -364.598ZM1003.25 -401.982L1017.88 -412.596L1032.84 -401.737L1056.16 -384.809H1008.83L1003.25 -401.982ZM989.166 -382.617H1007.25L1021.87 -337.645L1003.64 -350.884L983.583 -365.443L989.166 -382.617ZM982.867 -363.247L1002.7 -348.849L1023.02 -334.097L1032.5 -304.953L1007.69 -286.939H1007.69H977.013L967.534 -316.094L982.867 -363.247ZM966.369 -375.223L980.998 -364.603L966.374 -319.632L951.746 -364.608L966.369 -375.223ZM949.881 -363.252L965.22 -316.088L955.741 -286.944H925.063L900.255 -304.958L909.734 -334.107L937.075 -353.958L949.881 -363.252ZM943.583 -382.622L949.166 -365.443L916.075 -341.418L910.883 -337.645L910.962 -337.891L925.507 -382.617H943.583V-382.622ZM914.879 -412.612L929.502 -401.998L923.914 -384.814H876.586L914.879 -412.612ZM873.568 -382.622H923.199L907.865 -335.464L883.042 -317.445L858.218 -335.464L848.744 -364.608L873.568 -382.622ZM807.37 -389.943L823.738 -386.452L829.53 -404.263L831.541 -410.436L835.118 -399.43L840.581 -382.638L840.587 -382.622H869.812L846.164 -365.454L846.169 -365.438L854.98 -338.345L833.787 -357.412L805.736 -341.23L821.931 -369.258L802.325 -391.013L807.37 -389.943ZM751.399 -368.188L768.702 -398.126L798.706 -391.749L819.231 -368.971L801.934 -339.033L751.399 -309.884V-368.188ZM751.399 -307.358L780.187 -323.968L799.735 -335.245L789.948 -318.311L771.825 -286.949H751.394V-307.358H751.399ZM690.858 -403.344L720.027 -412.815L749.206 -403.339V-368.773L740.536 -353.765L720.032 -318.285L707.372 -340.192L690.858 -368.773V-403.344ZM749.206 -364.395V-308.626L731.511 -298.419L721.296 -316.099L727.521 -326.87L749.206 -364.395ZM690.858 -364.395L718.006 -317.414L718.768 -316.094L708.553 -298.414L690.858 -308.621V-364.395ZM690.858 -284.752V-306.095L709.357 -295.424L720.032 -313.902L730.712 -295.424L749.206 -306.09V-284.752H770.561L759.881 -266.274L778.374 -255.603L759.881 -244.936L770.561 -226.458H749.206V-205.121L730.712 -215.787L720.032 -197.309L709.357 -215.787L690.858 -205.115V-226.458H669.503L680.178 -244.936L661.684 -255.603L680.178 -266.274L669.503 -284.752H690.858ZM641.363 -391.754L652.524 -394.123L671.367 -398.126L688.665 -368.188V-309.889L638.135 -339.039L620.833 -368.981L641.363 -391.754ZM599.488 -382.643L608.523 -410.431L616.326 -386.447L637.733 -391.008L618.138 -369.263L634.333 -341.236L606.283 -357.418L587.789 -340.776L585.089 -338.35L593.905 -365.464L570.236 -382.643H599.488ZM591.32 -364.624L581.846 -335.485L557.028 -317.471L532.189 -335.506L516.86 -382.643H566.496L591.32 -364.624ZM510.562 -402.013L525.19 -412.628L540.158 -401.763L563.478 -384.835H516.15L510.562 -402.013ZM496.476 -382.643H514.557L529.18 -337.671L511.7 -350.362L490.893 -365.47L496.476 -382.643ZM490.178 -363.278L509.172 -349.486L530.329 -334.128L539.809 -304.984L515.006 -286.975H515.001H484.328L474.844 -316.135L490.178 -363.278ZM473.679 -375.249L488.308 -364.629L473.684 -319.658L459.056 -364.635L473.679 -375.249ZM457.197 -363.278L472.535 -316.109L463.062 -286.97H432.384L407.576 -304.984L417.055 -334.139L442.939 -352.93L457.197 -363.278ZM450.898 -382.653L456.481 -365.475L427.819 -344.669L418.194 -337.682L432.817 -382.653H450.898ZM422.194 -412.638L436.813 -402.024L431.224 -384.84H383.897L422.194 -412.638ZM380.899 -382.653H430.514L415.18 -335.49L390.367 -317.477L365.539 -335.501L356.07 -364.629L380.899 -382.653ZM314.806 -389.917L331.059 -386.452L336.094 -401.935L338.862 -410.436L347.902 -382.638H377.138L353.485 -365.47L353.49 -365.459H353.485L362.301 -338.35L341.107 -357.418L313.056 -341.236L329.252 -369.263L309.646 -391.018L314.806 -389.917ZM258.72 -368.188L276.023 -398.131L306.027 -391.754L326.552 -368.981L309.254 -339.044L258.72 -309.894V-368.188ZM258.72 -307.358L287.507 -323.968L307.056 -335.245L295.77 -315.713L279.146 -286.949H258.715V-307.358H258.72ZM198.174 -403.344L227.342 -412.815L256.521 -403.339V-368.773L247.006 -352.304L227.347 -318.285L211.486 -345.739L198.174 -368.778V-403.344ZM256.526 -364.395V-308.626L238.832 -298.419L228.617 -316.099L234.304 -325.946L256.526 -364.395ZM198.174 -364.395L224.397 -319.016L226.084 -316.094L215.868 -298.414L198.174 -308.621V-364.395ZM198.174 -284.752V-306.095L216.672 -295.424L227.347 -313.902L238.028 -295.424L256.521 -306.09V-284.752H277.877L267.202 -266.274L285.695 -255.603L267.202 -244.931L277.882 -226.453H256.526V-205.115L238.033 -215.782L227.353 -197.304L216.678 -215.782L198.179 -205.11V-226.453H176.824L187.499 -244.931L169.005 -255.598L187.499 -266.269L176.824 -284.747H198.174V-284.752ZM148.679 -391.754L159.683 -394.092L178.683 -398.126L195.98 -368.188V-309.889L145.451 -339.039L128.148 -368.981L148.679 -391.754ZM106.803 -382.643L115.844 -410.431L123.646 -386.442L145.054 -391.008L125.459 -369.263L141.654 -341.236L113.603 -357.418L97.7682 -343.172L92.4097 -338.35L101.226 -365.464L77.5565 -382.643H106.803ZM98.6403 -364.624L89.1664 -335.485L64.3536 -317.471L39.5146 -335.506L35.958 -346.443L24.1809 -382.643H73.817L98.6403 -364.624ZM17.8824 -402.013L32.5111 -412.628L47.4792 -401.763L70.7983 -384.835H23.4654L17.8824 -402.013ZM3.79689 -382.643H21.8777L36.5012 -337.671L18.4517 -350.775L-1.79135 -365.47L3.79689 -382.643ZM-8.351 -286.97L-17.8353 -316.13L-2.50685 -363.278L17.1042 -349.042L37.6449 -334.128L47.124 -304.984L22.3217 -286.975H22.3164H-8.351V-286.97ZM-17.1198 -255.629L23.0163 -284.763H23.0319L23.0528 -284.778H58.2274L67.7065 -255.629L58.2274 -226.479H23.0372L-17.1198 -255.629ZM-2.49118 -147.959L-17.8249 -195.117L-8.34056 -224.282H22.3269L47.1449 -206.263L37.6658 -177.109L11.7719 -158.307L-2.49118 -147.959ZM3.80734 -128.589L-1.77568 -145.773L36.5116 -173.565L29.6438 -152.442L21.8882 -128.594H3.80734V-128.589ZM17.8876 -109.213L23.4759 -126.397H70.8036L52.9995 -113.471L32.5111 -98.5988L17.8876 -109.213ZM17.8824 -85.2712L32.5111 -95.8853L47.4792 -85.0207L70.7983 -68.0924H23.4654L17.8824 -85.2712ZM3.79689 -65.9007H21.8777L36.5012 -20.9292L17.8197 -34.4916L-1.79135 -48.7324L3.79689 -65.9007ZM-8.351 29.7722L-17.8353 0.612122L-2.50685 -46.5355L37.6502 -17.3859L47.1293 11.7585L22.3269 29.7669H22.3217H-8.351V29.7722ZM-17.1198 61.1082L-17.0885 61.0873L23.0163 31.9743H23.0319L23.0528 31.9586H58.2274L67.7065 61.1082L58.2274 90.2578H23.0372L-17.1198 61.1082ZM-17.8249 121.625L-8.34056 92.46H22.3269L47.1449 110.479L37.6658 139.634L10.32 159.484L-2.48596 168.783L-17.8249 121.625ZM3.80734 188.154L-1.77568 170.975L36.5116 143.182L29.6438 164.306L21.8882 188.154H3.80734ZM17.8876 207.529L23.4759 190.345H70.8036L52.9995 203.271L32.5058 218.149L17.8876 207.529ZM17.8824 231.466L32.5111 220.852L47.4792 231.716L70.7983 248.645H23.4654L17.8824 231.466ZM3.79689 250.836H21.8777L36.5012 295.808L17.825 282.251L-1.78613 268.01L3.79689 250.836ZM-8.351 346.509L-17.8353 317.349L-2.50685 270.202L37.6502 299.351L47.1293 328.496L22.3269 346.504H22.3217H-8.351V346.509ZM-17.1198 377.851L23.011 348.717H23.0267L23.0476 348.701H58.2222L67.7013 377.851L58.2222 407H23.0372L-17.1198 377.851ZM-17.8249 438.362L-8.34056 409.197H22.3269L47.1449 427.216L37.6658 456.376L11.7719 475.178L-2.48596 485.526L-17.8249 438.362ZM3.80734 504.891L-1.77568 487.712L36.5116 459.919L29.7065 480.84L21.8829 504.891H3.80734ZM52.9995 520.008L32.5058 534.886L17.8824 524.272L23.4706 507.088H70.7983L52.9995 520.008ZM73.8118 504.891H24.1861L35.5976 469.798L39.5199 457.733L64.3484 439.709L89.1508 457.712L98.6299 486.872L73.8118 504.891ZM123.646 508.705L115.849 532.684L106.809 504.891H77.5565L101.226 487.712L92.4201 460.639L103.539 470.643L113.593 479.691L141.644 463.509L125.448 491.537L145.012 513.251L123.646 508.705ZM195.98 490.467L178.683 520.405L167.637 518.057L148.679 514.028L128.154 491.25L145.456 461.307L195.985 432.158V490.467H195.98ZM195.98 429.632L170.201 444.504L147.645 457.514L158.931 437.981L175.554 409.218H195.98V429.632ZM256.526 525.623L227.353 535.095L198.179 525.623V491.052L213.126 465.185L227.353 440.559L247.011 474.578L256.526 491.047V525.623ZM198.174 486.668V430.9L215.868 420.693L226.084 438.373L224.908 440.408L198.174 486.668ZM256.526 486.668L234.309 448.215L228.622 438.368L238.837 420.688L256.532 430.895V486.668H256.526ZM256.526 407.026V428.364L238.033 417.698L227.353 436.176L216.678 417.698L198.179 428.369V407.026H176.824L187.499 388.548L169.005 377.882L187.499 367.21L176.824 348.732H198.179V327.389L216.678 338.061L227.353 319.583L238.033 338.061L256.526 327.394V348.732H277.882L267.202 367.205L285.695 377.877L267.202 388.548L277.882 407.026H256.526ZM306.032 514.023H306.027L306.022 514.028L276.023 520.4L258.72 490.457V432.158L309.249 461.307L326.552 491.25L306.032 514.023ZM347.897 504.88L338.856 532.684L335.582 522.623L331.059 508.711L309.688 513.251L329.252 491.542L313.056 463.515L341.107 479.697L362.29 460.634L353.49 487.707H353.495L353.49 487.717L377.144 504.886H347.897V504.88ZM356.07 486.867L365.544 457.717L390.357 439.709L415.191 457.733L430.519 504.88H380.888L356.07 486.867ZM436.818 524.251L422.189 534.87L419.531 532.939L383.907 507.072H431.235L436.818 524.251ZM450.908 504.88H432.828L421.39 469.704L418.204 459.909L431.418 469.5L456.497 487.702L450.908 504.88ZM457.207 485.515L417.05 456.366L407.571 427.211L407.607 427.185L432.389 409.197H463.067L472.546 438.357L457.207 485.515ZM473.7 497.486L459.072 486.867L471.742 447.896L473.695 441.895L488.324 486.872L473.7 497.486ZM474.854 438.362L484.339 409.197H515.006L539.824 427.216L530.34 456.376L504.446 475.178L490.193 485.526L474.854 438.362ZM496.492 504.891L490.904 487.712L529.191 459.919L522.386 480.84L514.562 504.891H496.492ZM545.684 520.008L525.19 534.886L510.572 524.272L516.16 507.088H563.488L545.684 520.008ZM566.496 504.891H516.871L528.282 469.798L532.204 457.733L557.033 439.709L581.835 457.712L591.314 486.872L566.496 504.891ZM616.326 508.705L608.528 532.684L599.488 504.891H570.236L593.905 487.712L585.099 460.639L594.255 468.874L606.277 479.691L634.328 463.509L618.133 491.542L637.697 513.256L616.326 508.705ZM688.665 490.467L671.367 520.405L660.337 518.062L641.363 514.033L620.838 491.255L638.141 461.313L688.67 432.163V490.467H688.665ZM688.665 429.632L663.486 444.16L640.329 457.519L650.116 440.585L668.239 409.223H688.665V429.632ZM749.206 525.623L720.032 535.095L690.858 525.623V491.052L710.328 457.352L720.032 440.559L740.536 476.039L749.206 491.047V525.623ZM690.858 486.668V430.9L708.553 420.693L718.768 438.373L718.638 438.602L690.858 486.668ZM749.206 486.668L727.521 449.143L721.296 438.368L731.511 420.688L749.206 430.895V486.668ZM749.206 407.026V428.364L730.712 417.698L720.032 436.176L709.357 417.698L690.858 428.369V407.026H669.503L680.178 388.548L661.684 377.882L680.178 367.21L669.503 348.732H690.858V327.389L709.357 338.061L720.032 319.583L730.712 338.061L749.206 327.394V348.732H770.561L759.881 367.21L778.374 377.882L759.881 388.548L770.561 407.026H749.206ZM798.711 514.023H798.706L798.701 514.028L768.702 520.4L751.399 490.457V432.158L801.928 461.307L819.231 491.25L798.711 514.023ZM840.576 504.896L831.536 532.694L828.987 524.861L823.733 508.711L802.357 513.251L821.921 491.542L805.725 463.515L833.776 479.697L854.965 460.629L846.159 487.717L846.169 487.723L846.164 487.733L869.812 504.901H840.576V504.896ZM848.755 486.882L858.229 457.743L883.036 439.735L907.875 457.764L911.437 468.712L923.209 504.906H873.594L848.755 486.882ZM929.508 524.277L914.879 534.896L912.221 532.966L876.597 507.098H923.924L929.508 524.277ZM943.598 504.912H925.517L910.894 459.94L949.186 487.738L943.598 504.912ZM949.897 485.541L909.74 456.392L900.261 427.237L925.079 409.223H955.757L965.236 438.378L949.897 485.541ZM966.39 497.517L951.761 486.898L966.385 441.926L981.013 486.903L966.39 497.517ZM967.539 438.383L977.023 409.223H1007.7L1032.51 427.242L1023.03 456.397L997.136 475.199L982.883 485.547L967.539 438.383ZM989.176 504.917L983.588 487.738L1021.88 459.945L1015.07 480.866L1007.25 504.917H989.176ZM1038.37 520.034L1017.87 534.912L1003.26 524.298L1008.84 507.114H1056.17L1038.37 520.034ZM1059.15 504.917H1009.56L1020.97 469.824L1024.89 457.754L1049.72 439.735L1074.54 457.748L1084 486.877L1059.15 504.917ZM1109.02 508.705L1101.21 532.689L1092.17 504.891H1062.96L1086.59 487.738L1086.58 487.712L1077.77 460.629L1085.65 467.715L1098.97 479.691L1127.02 463.509L1110.82 491.542L1130.39 513.256L1109.02 508.705ZM1181.35 490.467L1164.06 520.405L1151.41 517.717L1134.05 514.028L1113.53 491.25L1130.83 461.307L1181.36 432.158V490.467H1181.35ZM1181.35 429.632L1155.58 444.504L1133.02 457.514L1144.3 437.981L1160.93 409.218H1181.35V429.632ZM1241.9 525.623L1212.72 535.095L1183.55 525.623V491.052L1198.5 465.185L1212.72 440.559L1233.23 476.039L1241.9 491.047V525.623ZM1183.55 486.668V430.9L1201.24 420.693L1211.46 438.373L1210.28 440.408L1183.55 486.668ZM1241.9 486.668L1220.22 449.143L1213.99 438.368L1224.21 420.688L1241.9 430.895V486.668ZM1241.9 407.026V428.364L1223.41 417.698L1212.73 436.176L1202.05 417.698L1183.55 428.369V407.026H1162.2L1172.87 388.548L1154.38 377.882L1172.87 367.21L1162.2 348.732H1183.55V327.389L1202.05 338.061L1212.73 319.583L1223.41 338.061L1241.9 327.394V348.732H1263.26L1252.58 367.21L1271.07 377.882L1252.58 388.548L1263.26 407.026H1241.9ZM1291.4 514.023H1291.4L1291.39 514.028L1261.39 520.4L1244.09 490.457V432.158L1294.62 461.307L1311.92 491.25L1291.4 514.023ZM1333.27 504.896L1324.23 532.694L1321.68 524.861L1316.43 508.711L1295.06 513.251L1314.63 491.542L1298.43 463.515L1326.48 479.697L1347.67 460.629L1338.86 487.717L1338.86 487.728L1362.51 504.896H1333.27ZM1341.44 486.877L1350.91 457.748L1375.73 439.735L1400.56 457.759L1404.13 468.712L1415.9 504.906H1366.29L1341.44 486.877ZM1422.19 524.277L1407.56 534.896L1369.28 507.098H1416.6L1422.19 524.277ZM1436.28 504.906H1418.2L1403.57 459.935L1441.87 487.733L1436.28 504.906ZM1448.44 409.223L1457.92 438.383L1453.13 453.104L1442.58 485.547L1402.42 456.397L1392.95 427.242L1392.97 427.226L1417.76 409.228H1448.44V409.223ZM1426.43 355.542L1457.2 377.877L1417.04 407.026H1381.85L1372.37 377.882V377.877L1381.85 348.732H1417.02L1417.03 348.743H1417.06L1426.43 355.542ZM1442.57 270.228L1457.9 317.396L1448.43 346.535H1417.75L1392.95 328.522L1402.42 299.367L1428.31 280.576L1442.57 270.228ZM1436.27 250.852L1441.86 268.031L1413.19 288.836L1403.57 295.824L1404.33 293.475L1418.19 250.847H1436.27V250.852ZM1422.18 231.476L1416.59 248.66H1369.27L1407.56 220.862L1422.18 231.476ZM1422.19 207.54L1407.56 218.159L1369.28 190.361H1416.6L1422.19 207.54ZM1436.28 188.169H1418.2L1403.57 143.198L1441.87 170.996L1436.28 188.169ZM1448.44 92.4809L1457.91 121.636L1453.13 136.357L1442.58 168.799L1402.42 139.649L1392.94 110.495L1392.97 110.474L1417.76 92.4756H1448.44V92.4809ZM1426.43 38.7999L1457.2 61.1343L1417.04 90.2839H1381.85L1372.37 61.1396V61.1343L1381.85 31.99H1417.02L1417.03 32.0004H1417.06L1426.43 38.7999ZM1442.57 -46.5146L1457.9 0.65387L1448.43 29.793H1417.75L1392.95 11.7794L1402.42 -17.3755L1428.31 -36.1667L1442.57 -46.5146ZM1436.27 -65.8851L1441.86 -48.7063L1413.19 -27.9008L1403.57 -20.9135L1404.33 -23.2617L1418.19 -65.8903H1436.27V-65.8851ZM1422.18 -85.2607L1416.59 -68.0768H1369.27L1407.56 -95.8748L1422.18 -85.2607ZM1422.19 -109.202L1407.56 -98.5832L1369.28 -126.381H1416.6L1422.19 -109.202ZM1436.28 -128.573H1418.2L1403.57 -173.544L1441.87 -145.746L1436.28 -128.573ZM1448.44 -224.256L1457.92 -195.096L1453.13 -180.375L1442.58 -147.933L1402.42 -177.083L1392.95 -206.237L1392.97 -206.258L1417.76 -224.251H1448.44V-224.256ZM1426.32 -278.021L1457.2 -255.598L1417.05 -226.448H1381.86L1372.38 -255.598V-255.603L1381.86 -284.747H1417.02L1417.04 -284.737H1417.07L1426.32 -278.021ZM1457.9 -316.083L1448.43 -286.944H1417.75L1392.95 -304.958L1402.42 -334.113L1428.31 -352.904L1442.56 -363.252L1457.9 -316.083Z" fill="white"/>
</mask>
<g mask="url(#mask1_44_58)">
<rect x="-2" width="1440" height="188" fill="#D9D9D9" fill-opacity="0.2"/>
</g>
</g>
</svg>
