<svg xmlns="http://www.w3.org/2000/svg">
  <symbol id="search" viewBox="0 0 24 24">
    <path d="m21 21-4.35-4.35" fill="none" stroke="currentColor" stroke-width="2" stroke-linecap="round"/>
    <circle cx="11" cy="11" r="7" fill="none" stroke="currentColor" stroke-width="2"/>
  </symbol>
  <symbol id="sliders" viewBox="0 0 24 24">
    <path d="M4 7h8M16 7h4M4 17h4M12 17h8" fill="none" stroke="currentColor" stroke-width="2" stroke-linecap="round"/>
    <circle cx="14" cy="7" r="2" fill="none" stroke="currentColor" stroke-width="2"/>
    <circle cx="10" cy="17" r="2" fill="none" stroke="currentColor" stroke-width="2"/>
  </symbol>
  <symbol id="user" viewBox="0 0 24 24">
    <path d="M20 21a8 8 0 0 0-16 0" fill="none" stroke="currentColor" stroke-width="2" stroke-linecap="round"/>
    <circle cx="12" cy="8" r="4" fill="none" stroke="currentColor" stroke-width="2"/>
  </symbol>
  <symbol id="chevron-down" viewBox="0 0 24 24">
    <path d="m6 9 6 6 6-6" fill="none" stroke="currentColor" stroke-width="2" stroke-linecap="round" stroke-linejoin="round"/>
  </symbol>
  <symbol id="arrow-right" viewBox="0 0 24 24">
    <path d="M5 12h14M13 6l6 6-6 6" fill="none" stroke="currentColor" stroke-width="2" stroke-linecap="round" stroke-linejoin="round"/>
  </symbol>
  <symbol id="file-text" viewBox="0 0 24 24">
    <path d="M14 2H7a2 2 0 0 0-2 2v16a2 2 0 0 0 2 2h10a2 2 0 0 0 2-2V7Z" fill="none" stroke="currentColor" stroke-width="2" stroke-linejoin="round"/>
    <path d="M14 2v5h5M9 13h6M9 17h4" fill="none" stroke="currentColor" stroke-width="2" stroke-linecap="round" stroke-linejoin="round"/>
  </symbol>
  <symbol id="wallet" viewBox="0 0 24 24">
    <path d="M4 7h16a2 2 0 0 1 2 2v10a2 2 0 0 1-2 2H5a3 3 0 0 1-3-3V6a3 3 0 0 1 3-3h14" fill="none" stroke="currentColor" stroke-width="2" stroke-linecap="round" stroke-linejoin="round"/>
    <path d="M16 14h6" fill="none" stroke="currentColor" stroke-width="2" stroke-linecap="round"/>
    <circle cx="17" cy="14" r="1" fill="currentColor"/>
  </symbol>
  <symbol id="badge-check" viewBox="0 0 24 24">
    <path d="m12 2 2.45 2.17 3.28-.25.52 3.25 2.61 1.98-1.45 2.94 1.45 2.94-2.61 1.98-.52 3.25-3.28-.25L12 22l-2.45-2.17-3.28.25-.52-3.25-2.61-1.98 1.45-2.94-1.45-2.94 2.61-1.98.52-3.25 3.28.25Z" fill="none" stroke="currentColor" stroke-width="2" stroke-linejoin="round"/>
    <path d="m8.5 12.4 2.1 2.1 5-5" fill="none" stroke="currentColor" stroke-width="2" stroke-linecap="round" stroke-linejoin="round"/>
  </symbol>
  <symbol id="calendar" viewBox="0 0 24 24">
    <path d="M7 2v4M17 2v4M4 9h16" fill="none" stroke="currentColor" stroke-width="2" stroke-linecap="round"/>
    <rect x="4" y="5" width="16" height="17" rx="2" fill="none" stroke="currentColor" stroke-width="2"/>
    <path d="M8 13h3M13 13h3M8 17h3M13 17h3" fill="none" stroke="currentColor" stroke-width="2" stroke-linecap="round"/>
  </symbol>
  <symbol id="claim" viewBox="0 0 24 24">
    <path d="M12 3 5 6v5c0 4.55 2.9 8.73 7 10 4.1-1.27 7-5.45 7-10V6Z" fill="none" stroke="currentColor" stroke-width="2" stroke-linejoin="round"/>
    <path d="M9 12h6M12 9v6" fill="none" stroke="currentColor" stroke-width="2" stroke-linecap="round"/>
  </symbol>
  <symbol id="download-file" viewBox="0 0 24 24">
    <path d="M14 2H7a2 2 0 0 0-2 2v16a2 2 0 0 0 2 2h10a2 2 0 0 0 2-2V7Z" fill="none" stroke="currentColor" stroke-width="2" stroke-linejoin="round"/>
    <path d="M14 2v5h5M12 11v6M9 14l3 3 3-3" fill="none" stroke="currentColor" stroke-width="2" stroke-linecap="round" stroke-linejoin="round"/>
  </symbol>
  <symbol id="building" viewBox="0 0 24 24">
    <path d="M4 21h16M6 21V5a2 2 0 0 1 2-2h8a2 2 0 0 1 2 2v16" fill="none" stroke="currentColor" stroke-width="2" stroke-linecap="round" stroke-linejoin="round"/>
    <path d="M9 8h1M14 8h1M9 12h1M14 12h1M9 16h1M14 16h1" fill="none" stroke="currentColor" stroke-width="2" stroke-linecap="round"/>
  </symbol>
  <symbol id="briefcase" viewBox="0 0 24 24">
    <path d="M9 6V5a2 2 0 0 1 2-2h2a2 2 0 0 1 2 2v1" fill="none" stroke="currentColor" stroke-width="2" stroke-linecap="round"/>
    <rect x="3" y="6" width="18" height="14" rx="2" fill="none" stroke="currentColor" stroke-width="2"/>
    <path d="M3 12h18M12 11v2" fill="none" stroke="currentColor" stroke-width="2" stroke-linecap="round"/>
  </symbol>
  <symbol id="cloud-download" viewBox="0 0 24 24">
    <path d="M18 17a4 4 0 0 0 .5-7.97A6 6 0 0 0 6.7 8.2 4.5 4.5 0 0 0 7 17" fill="none" stroke="currentColor" stroke-width="2" stroke-linecap="round" stroke-linejoin="round"/>
    <path d="M12 12v8M9 17l3 3 3-3" fill="none" stroke="currentColor" stroke-width="2" stroke-linecap="round" stroke-linejoin="round"/>
  </symbol>
  <symbol id="shield-check" viewBox="0 0 24 24">
    <path d="M12 22s8-4 8-10V5l-8-3-8 3v7c0 6 8 10 8 10Z" fill="none" stroke="currentColor" stroke-width="2" stroke-linejoin="round"/>
    <path d="m8.7 12 2.2 2.2 4.6-4.7" fill="none" stroke="currentColor" stroke-width="2" stroke-linecap="round" stroke-linejoin="round"/>
  </symbol>
  <symbol id="mail" viewBox="0 0 24 24">
    <rect x="3" y="5" width="18" height="14" rx="2" fill="none" stroke="currentColor" stroke-width="2"/>
    <path d="m3 7 9 7 9-7" fill="none" stroke="currentColor" stroke-width="2" stroke-linecap="round" stroke-linejoin="round"/>
  </symbol>
  <symbol id="phone" viewBox="0 0 24 24">
    <path d="M22 16.9v3a2 2 0 0 1-2.18 2 19.72 19.72 0 0 1-8.6-3.07 19.4 19.4 0 0 1-6-6A19.72 19.72 0 0 1 2.15 4.2 2 2 0 0 1 4.11 2h3a2 2 0 0 1 2 1.72c.12.9.33 1.77.62 2.61a2 2 0 0 1-.45 2.11L8 9.7a16 16 0 0 0 6.3 6.3l1.26-1.26a2 2 0 0 1 2.11-.45c.84.29 1.71.5 2.61.62A2 2 0 0 1 22 16.9Z" fill="none" stroke="currentColor" stroke-width="2" stroke-linejoin="round"/>
  </symbol>
  <symbol id="help" viewBox="0 0 24 24">
    <circle cx="12" cy="12" r="10" fill="none" stroke="currentColor" stroke-width="2"/>
    <path d="M9.1 9a3 3 0 1 1 5.16 2.07c-.8.78-1.76 1.27-2.1 2.43M12 17h.01" fill="none" stroke="currentColor" stroke-width="2" stroke-linecap="round"/>
  </symbol>
  <symbol id="bot" viewBox="0 0 24 24">
    <rect x="4" y="7" width="16" height="12" rx="3" fill="none" stroke="currentColor" stroke-width="2"/>
    <path d="M12 3v4M8 12h.01M16 12h.01M9 16h6" fill="none" stroke="currentColor" stroke-width="2" stroke-linecap="round"/>
  </symbol>
  <symbol id="map" viewBox="0 0 24 24">
    <path d="m9 18-6 3V6l6-3 6 3 6-3v15l-6 3Z" fill="none" stroke="currentColor" stroke-width="2" stroke-linejoin="round"/>
    <path d="M9 3v15M15 6v15" fill="none" stroke="currentColor" stroke-width="2" stroke-linecap="round"/>
  </symbol>
  <symbol id="menu" viewBox="0 0 24 24">
    <path d="M4 6h16M4 12h16M4 18h16" fill="none" stroke="currentColor" stroke-width="2" stroke-linecap="round"/>
  </symbol>
  <symbol id="x" viewBox="0 0 24 24">
    <path d="m18 6-12 12M6 6l12 12" fill="none" stroke="currentColor" stroke-width="2" stroke-linecap="round"/>
  </symbol>
  <symbol id="globe" viewBox="0 0 24 24">
    <circle cx="12" cy="12" r="10" fill="none" stroke="currentColor" stroke-width="2"/>
    <path d="M2 12h20M12 2a15.3 15.3 0 0 1 0 20M12 2a15.3 15.3 0 0 0 0 20" fill="none" stroke="currentColor" stroke-width="2" stroke-linecap="round"/>
  </symbol>
  <symbol id="layers" viewBox="0 0 24 24">
    <path d="m12 2 9 5-9 5-9-5Z" fill="none" stroke="currentColor" stroke-width="2" stroke-linejoin="round"/>
    <path d="m3 12 9 5 9-5M3 17l9 5 9-5" fill="none" stroke="currentColor" stroke-width="2" stroke-linecap="round" stroke-linejoin="round"/>
  </symbol>
</svg>
